<?xml version="1.0" encoding="utf-8"?>
<!-- Generator: Adobe Illustrator 28.0.0, SVG Export Plug-In . SVG Version: 6.00 Build 0)  -->
<svg version="1.1" id="Layer_1" xmlns="http://www.w3.org/2000/svg" xmlns:xlink="http://www.w3.org/1999/xlink" x="0px" y="0px"
	 viewBox="0 0 750 500" style="enable-background:new 0 0 750 500;" xml:space="preserve">
<style type="text/css">
	.st0{fill:#FFFFFF;}
	.st1{clip-path:url(#SVGID_00000068643629478210780470000015498009642267555491_);fill:#222B38;}
	
		.st2{clip-path:url(#SVGID_00000033371599350451305950000013986958714522962340_);fill:url(#SVGID_00000033328422730624914590000010846723698438182828_);}
	
		.st3{clip-path:url(#SVGID_00000018229841157617151620000005791101846467815569_);fill:url(#SVGID_00000097497935952802893950000005506907492018863770_);}
	
		.st4{clip-path:url(#SVGID_00000023988482287573464090000016695743804615618435_);fill:url(#SVGID_00000062181499644852967810000013382925506039026845_);}
	
		.st5{clip-path:url(#SVGID_00000141441511571181166620000000891287928066920628_);fill:url(#SVGID_00000167378409088332664080000011034210859702707359_);}
	.st6{clip-path:url(#SVGID_00000005233945408623790280000001391799568313428379_);}
	.st7{fill:#FACB5F;}
	.st8{fill-rule:evenodd;clip-rule:evenodd;fill:#294A59;}
	.st9{clip-path:url(#SVGID_00000090979851319187748570000004391460951880323735_);}
	.st10{fill-rule:evenodd;clip-rule:evenodd;fill:#FACB5F;}
	.st11{opacity:0.8;clip-path:url(#SVGID_00000063606780964726792820000004745475008338513819_);}
	.st12{fill:#294A59;}
	.st13{clip-path:url(#SVGID_00000104673293530223400550000013209265823886576012_);}
	.st14{clip-path:url(#SVGID_00000030456235821799215240000012798404888035205527_);}
	.st15{display:none;}
	.st16{display:inline;}
	.st17{clip-path:url(#SVGID_00000031178734900877165170000010572148756671115664_);}
	.st18{clip-path:url(#SVGID_00000132054030169196249740000008244251720130206379_);}
	.st19{clip-path:url(#SVGID_00000181786553898764745700000003688970143351822518_);fill:#FACB5F;}
	.st20{clip-path:url(#SVGID_00000023968229222444620780000015072899906285404577_);fill:none;}
	.st21{fill:none;}
	.st22{enable-background:new    ;}
</style>
<g id="Florid_Vector_Pack_14">
</g>
<g id="Florid_Vector_Pack_19">
</g>
<g id="Florid_Vector_Pack_13">
</g>
<g id="Florid_Vector_Pack_15">
</g>
<g id="Florid_Vector_Pack_16">
</g>
<g id="Florid_Vector_Pack_01">
</g>
<g id="Florid_Vector_Pack_02">
</g>
<g id="Florid_Vector_Pack_03">
</g>
<g id="Florid_Vector_Pack_04">
</g>
<g id="Florid_Vector_Pack_05">
</g>
<g id="Florid_Vector_Pack_06">
</g>
<g id="Florid_Vector_Pack_09">
</g>
<g id="Florid_Vector_Pack_10">
</g>
<g id="Florid_Vector_Pack_11">
</g>
<g id="Florid_Vector_Pack_12">
</g>
<g id="Alert">
</g>
<g>
	<g>
		<rect x="-89.3" y="-3.2" class="st0" width="900.2" height="506.4"/>
	</g>
	<g>
		<g>
			<defs>
				<rect id="SVGID_1_" x="-89.3" y="-3.2" width="900.2" height="506.4"/>
			</defs>
			<clipPath id="SVGID_00000076589371106445781310000018166936920778125986_">
				<use xlink:href="#SVGID_1_"  style="overflow:visible;"/>
			</clipPath>
			
				<rect x="-89.3" y="-3.2" style="clip-path:url(#SVGID_00000076589371106445781310000018166936920778125986_);fill:#222B38;" width="900.2" height="506.4"/>
		</g>
		<g>
			<defs>
				<rect id="SVGID_00000145747900279099332350000008942897649054771640_" x="-89.3" y="-3.2" width="900.2" height="506.4"/>
			</defs>
			<clipPath id="SVGID_00000126312519285954222160000009287495986905919878_">
				<use xlink:href="#SVGID_00000145747900279099332350000008942897649054771640_"  style="overflow:visible;"/>
			</clipPath>
			
				<linearGradient id="SVGID_00000087379125732160293460000007905256373367060670_" gradientUnits="userSpaceOnUse" x1="335.3763" y1="442.2047" x2="331.3195" y2="-123.0397" gradientTransform="matrix(0.9977 -6.720000e-02 -6.720000e-02 -0.9977 9.443 323.7489)">
				<stop  offset="0" style="stop-color:#FFFFFF"/>
				<stop  offset="1" style="stop-color:#FFFFFF;stop-opacity:0"/>
			</linearGradient>
			
				<path style="clip-path:url(#SVGID_00000126312519285954222160000009287495986905919878_);fill:url(#SVGID_00000087379125732160293460000007905256373367060670_);" d="
				M863.8-144.7l-54.4,15.4l-54.3,15.6l-27.1,7.8c-9,2.6-17.9,5.4-26.5,8.6c-17.2,6.5-33.7,15.2-45.9,28.6
				c-3.1,3.3-5.8,6.9-8.3,10.6c-2.5,3.7-4.5,7.7-6.1,11.9c-1.6,4.1-2.7,8.4-3.4,12.8c-0.5,4.4-0.6,8.8-0.2,13.3
				c0.9,8.8,4,17.4,8.5,25.3c4.5,7.9,10.2,15.2,16.4,22c12.5,13.7,27,25.7,40.9,38.6c13.9,13,26.6,27.1,38,42.3
				c11.3,15.2,21,31.7,28.7,49.1c7.6,17.4,13,35.9,15.5,54.7l0.7,7.1c0.2,2.4,0.5,4.7,0.5,7.1l0.1,7.1l0.1,3.6l-0.1,3.6
				c-0.5,9.5-1.9,19-4.2,28.3c-4.7,18.5-12.9,36-24,51.5c-11.2,15.4-25.2,29-41.8,38.5c-8.3,4.8-17.1,8.6-26.3,11.2
				c-9.2,2.6-18.8,3.8-28.4,3.7c-19.2-0.1-38.1-5.3-55.2-13.5c-17.2-8.2-33-19-47.6-31.2c-14.5-12.2-27.9-25.6-41.2-38.9
				c-13.3-13.3-26.6-26.6-41-38.6c-14.3-12-29.6-22.8-46.6-30.4c-16.8-7.7-35-12.7-53.2-12.9c-9.1-0.1-18.2,0.9-26.9,3.5
				c-8.7,2.5-17,6.3-24.7,11.1c-1.9,1.3-3.8,2.4-5.7,3.8l-5.4,4.1l-5.2,4.5c-1.7,1.5-3.3,3.2-5,4.7c-6.5,6.4-12.5,13.5-18,20.8
				c-11,14.9-20.4,30.9-29.3,47.4c-9.1,16.5-18.1,33.2-28.9,49.2c-10.7,16-23.7,31.1-39.7,43.3c-8.1,6-16.9,11.1-26.3,14.9
				c-9.4,3.9-19.2,6.6-29.1,8.2c-19.9,3.3-40,2.5-59.5-0.5c-9.8-1.5-19.4-3.6-28.8-6.2c-9.4-2.5-18.7-5.5-27.8-8.6
				c-18.2-6.2-35.9-13.1-53.3-19.2c-8.7-3.1-17.4-5.9-26.1-8.4l-6.5-1.8l-6.5-1.7c-4.3-1-8.6-1.9-12.9-2.7c-17.2-3-34.6-4.1-51-2
				c-16.3,2.2-31.5,7.3-43.6,15.9l-22.8-37.9c10.1-5.4,20.7-9.4,31.5-12c10.7-2.7,21.5-4,32.1-4.3c10.6-0.4,21.1,0.2,31.3,1.6
				c10.2,1.4,20.2,3.4,29.9,6.1c19.6,5.3,37.7,12.6,55.3,20.2c17.6,7.6,34.5,15.7,51.6,22.7c8.5,3.5,17.1,6.8,25.7,9.8
				c8.5,2.9,17.2,5.4,26,7.3c17.5,3.7,35.5,5.4,52.9,3.5c8.7-1,17.3-2.9,25.5-5.9c8.2-2.9,16-6.9,23.3-11.8c7.3-5,14-10.8,20.3-17.3
				c6.3-6.5,12.1-13.5,17.6-20.9c5.4-7.4,10.6-15.1,15.6-23c4.9-7.9,9.7-16,14.5-24.1c9.5-16.3,19.8-32.5,31.7-47.6
				c6-7.5,12.4-14.7,19.5-21.3c1.8-1.6,3.5-3.3,5.4-4.9l5.6-4.6l5.9-4.2c2-1.4,4.1-2.6,6.2-3.9c8.4-4.9,17.5-8.8,26.9-11.3
				c9.5-2.5,19.3-3.5,29-3.2c19.5,0.6,38.3,6.3,55.5,14.5c8.6,4.1,16.9,9,24.8,14.3c7.9,5.4,15.4,11.3,22.6,17.4
				c14.4,12.4,27.7,25.9,40.9,39.3c13.2,13.4,26.5,26.7,40.7,38.8c14.3,12,29.8,22.7,46.6,30.8c16.7,8.1,35,13.2,53.6,13.3
				c9.2,0.1,18.5-1,27.4-3.5c8.9-2.5,17.5-6.1,25.5-10.8c16.1-9.3,29.7-22.6,40.6-37.6c10.8-15.2,18.7-32.3,23.3-50.3
				c2.3-9,3.6-18.2,4.1-27.5l0.1-3.5l-0.1-3.5l-0.1-7c0-2.3-0.3-4.6-0.5-7l-0.7-6.9c-2.4-18.5-7.9-36.5-15.5-53.5
				c-7.6-17-17.3-33.1-28.6-48c-11.3-14.9-24-28.7-37.7-41.3c-6.8-6.4-14.1-12.4-21.1-18.7c-7.1-6.3-14.1-12.7-20.6-19.7
				c-6.5-7-12.6-14.5-17.6-22.9c-4.9-8.4-8.5-17.8-9.7-27.7c-0.6-4.9-0.6-10,0-14.9c0.6-5,1.9-9.8,3.6-14.5c1.7-4.7,4-9.1,6.6-13.3
				c2.6-4.2,5.6-8.2,8.8-11.8c3.3-3.7,6.8-7.1,10.6-10.2c3.8-3.2,7.8-6,11.9-8.6c8.2-5.2,17-9.3,26-12.9c8.9-3.6,18-6.6,27-9.4
				l27-8.5l53.9-17l53.8-17.2L863.8-144.7z"/>
		</g>
		<g>
			<defs>
				<rect id="SVGID_00000118368110727445289180000008116164984440002238_" x="-89.3" y="-3.2" width="900.2" height="506.4"/>
			</defs>
			<clipPath id="SVGID_00000162339668168082277120000010277158723351244217_">
				<use xlink:href="#SVGID_00000118368110727445289180000008116164984440002238_"  style="overflow:visible;"/>
			</clipPath>
			
				<linearGradient id="SVGID_00000034772119532004070450000004027268571015527810_" gradientUnits="userSpaceOnUse" x1="479.5858" y1="-304.394" x2="478.0132" y2="-523.5078" gradientTransform="matrix(0.9841 -0.1778 -0.1778 -0.9841 -21.7752 -71.1171)">
				<stop  offset="0" style="stop-color:#FFFFFF"/>
				<stop  offset="1" style="stop-color:#FFFFFF;stop-opacity:0"/>
			</linearGradient>
			
				<path style="clip-path:url(#SVGID_00000162339668168082277120000010277158723351244217_);fill:url(#SVGID_00000034772119532004070450000004027268571015527810_);" d="
				M840.2,274.4c-6.3-1.3-12.5-3-18.6-5.2c-18-6.2-34.9-15.2-50.7-25.7c-15.8-10.5-30.6-22.3-45.3-34.1
				c-14.7-11.7-29.4-23.4-45-33.8c-15.5-10.3-32-19.3-49.7-25c-17.6-5.8-36.1-8.7-54.3-6.9c-9.1,0.9-18,3-26.4,6.5
				s-16.2,8.2-23.3,13.8c-1.7,1.5-3.6,2.8-5.2,4.4l-5,4.7l-4.7,5c-1.6,1.7-3,3.5-4.4,5.2c-5.8,7.1-10.9,14.8-15.6,22.7
				c-9.3,16-16.8,33-23.9,50.4c-7.2,17.4-14.3,35-23.3,52.1c-8.9,17.1-20.1,33.6-34.6,47.5c-7.4,6.8-15.6,12.9-24.5,17.8
				c-8.9,4.9-18.3,8.7-28,11.4c-19.4,5.5-39.5,6.9-59.2,6.1c-9.9-0.4-19.7-1.4-29.3-2.9c-9.7-1.5-19.2-3.4-28.6-5.5
				c-2.4-0.5-4.9-1.1-7.3-1.6l-7.7-29.3c7.1,2.3,14.1,4.5,21.2,6.5c8.9,2.6,17.7,4.9,26.6,6.8c8.8,1.9,17.7,3.4,26.6,4.3
				c17.8,1.7,35.9,1.4,53-2.4c8.5-2,16.8-4.8,24.7-8.7c7.8-3.8,15.1-8.6,21.8-14.3c6.7-5.7,12.7-12.3,18.3-19.4
				c5.5-7.1,10.6-14.7,15.1-22.7c4.6-8,8.8-16.2,12.9-24.6c4-8.4,7.9-17,11.7-25.6c7.7-17.2,16-34.5,26.2-50.8
				c5.1-8.1,10.7-16,17-23.4c1.6-1.8,3.1-3.7,4.8-5.4l5.1-5.2l5.4-4.9c1.8-1.6,3.8-3,5.7-4.6c7.8-5.8,16.4-10.7,25.5-14.2
				c9.1-3.5,18.8-5.6,28.4-6.4c19.4-1.5,38.7,2,56.8,8.3c9,3.2,17.8,7.1,26.2,11.5c8.4,4.5,16.5,9.5,24.4,14.8
				c15.7,10.7,30.4,22.6,45,34.5c14.6,11.8,29.3,23.6,44.8,34.1c15.6,10.3,32.1,19.3,49.7,25.4c5.9,2.1,12,3.8,18.1,5.1L840.2,274.4
				z"/>
		</g>
		<g>
			<defs>
				<rect id="SVGID_00000109720226506259963090000012277693026463985052_" x="-89.3" y="-3.2" width="900.2" height="506.4"/>
			</defs>
			<clipPath id="SVGID_00000054944899889280216250000002184324284721950595_">
				<use xlink:href="#SVGID_00000109720226506259963090000012277693026463985052_"  style="overflow:visible;"/>
			</clipPath>
			
				<linearGradient id="SVGID_00000153679996983525001040000001282279575467128497_" gradientUnits="userSpaceOnUse" x1="-212.7959" y1="-1013.6547" x2="-214.3684" y2="-1232.7675" gradientTransform="matrix(0.9293 -0.3693 -0.3693 -0.9293 -98.4886 -677.9636)">
				<stop  offset="0" style="stop-color:#FFFFFF"/>
				<stop  offset="1" style="stop-color:#FFFFFF;stop-opacity:0"/>
			</linearGradient>
			
				<path style="clip-path:url(#SVGID_00000054944899889280216250000002184324284721950595_);fill:url(#SVGID_00000153679996983525001040000001282279575467128497_);" d="
				M433.4,404.7c-6.4,0-12.9-0.5-19.2-1.4c-18.9-2.5-37.2-8-54.8-15.1c-17.6-7.2-34.4-15.8-51.1-24.4c-16.8-8.6-33.5-17.1-50.8-24.2
				c-17.3-7.1-35.2-12.6-53.6-14.7c-18.3-2.2-37.2-1.4-54.6,4c-8.7,2.7-17.1,6.5-24.6,11.6c-7.5,5.1-14.2,11.2-20.1,18.2
				c-1.4,1.8-2.9,3.5-4.2,5.3l-3.9,5.6l-3.6,5.8c-1.2,1.9-2.2,4-3.3,6c-4.2,8.1-7.8,16.6-10.8,25.3c-5.9,17.5-9.9,35.7-13.4,54.1
				c-3.6,18.5-7.1,37.2-12.5,55.7c-5.3,18.5-13,36.9-24.5,53.4c-5.9,8.1-12.7,15.7-20.5,22.3c-7.7,6.6-16.3,12.1-25.2,16.7
				c-17.9,9.2-37.3,14.6-56.8,17.7c-9.8,1.5-19.6,2.5-29.3,2.9c-9.8,0.5-19.4,0.5-29.1,0.3c-2.5,0-5-0.1-7.5-0.2l-13.3-27.2
				c7.4,0.8,14.8,1.6,22.1,2.2c9.2,0.8,18.3,1.3,27.4,1.4c9,0.1,18.1-0.1,27-1.1c17.8-1.8,35.4-5.7,51.5-12.9
				c8-3.6,15.6-8.1,22.5-13.4c6.9-5.3,13.1-11.5,18.6-18.3c5.4-6.9,10-14.6,14.1-22.7c4-8.1,7.4-16.5,10.3-25.3
				c2.9-8.7,5.5-17.6,7.8-26.6c2.3-9,4.3-18.2,6.5-27.4c4.1-18.4,8.9-37,15.6-55c3.4-9,7.3-17.8,12-26.3c1.2-2.1,2.3-4.2,3.7-6.3
				l4-6.1l4.4-5.9c1.5-1.9,3.1-3.7,4.7-5.6c6.5-7.3,13.9-13.7,22.2-19c8.2-5.3,17.3-9.3,26.6-11.9c18.7-5.4,38.4-5.7,57.3-3.2
				c9.5,1.3,18.8,3.4,28,6.1c9.2,2.7,18.1,6,26.8,9.7c17.5,7.3,34.3,16.1,50.9,24.9c16.7,8.7,33.4,17.3,50.7,24.5
				c17.3,7.1,35.3,12.5,53.8,15.1c6.2,0.9,12.5,1.4,18.8,1.4L433.4,404.7z"/>
		</g>
		<g>
			<defs>
				<rect id="SVGID_00000008132417329741656430000001869978360636328376_" x="-89.3" y="-3.2" width="900.2" height="506.4"/>
			</defs>
			<clipPath id="SVGID_00000108274003454890869720000011398933390739706044_">
				<use xlink:href="#SVGID_00000008132417329741656430000001869978360636328376_"  style="overflow:visible;"/>
			</clipPath>
			
				<linearGradient id="SVGID_00000096036020832592442540000003466647757598463122_" gradientUnits="userSpaceOnUse" x1="85.074" y1="-773.552" x2="83.1549" y2="-1040.9464" gradientTransform="matrix(0.9304 -0.3665 -0.3665 -0.9304 -39.0016 -539.9744)">
				<stop  offset="0" style="stop-color:#FFFFFF"/>
				<stop  offset="1" style="stop-color:#FFFFFF;stop-opacity:0"/>
			</linearGradient>
			
				<path style="clip-path:url(#SVGID_00000108274003454890869720000011398933390739706044_);fill:url(#SVGID_00000096036020832592442540000003466647757598463122_);" d="
				M-151.6,404.7c0,0,137.6,26,217.7-85.8s172.6-149.8,266.5-117.3s223.1,179.3,319.2,62.6S627,7.9,829.3-28.7l1.2,12.8
				c0,0-106.5,19.4-109.7,81.3s-5.4,201-130.4,259.8c-123.3,58-195.8,1.6-267.1-59.2c-70.6-60.2-169.7,8.4-245.8,91.3
				s-207.6,85.1-218.2,74.9L-151.6,404.7z"/>
		</g>
		<g>
			<defs>
				<rect id="SVGID_00000091734945581865571570000003554640149339252665_" x="-89.3" y="-3.2" width="900.2" height="506.4"/>
			</defs>
			<clipPath id="SVGID_00000178885094159913580930000008961305336683850376_">
				<use xlink:href="#SVGID_00000091734945581865571570000003554640149339252665_"  style="overflow:visible;"/>
			</clipPath>
			<g style="clip-path:url(#SVGID_00000178885094159913580930000008961305336683850376_);">
				<path class="st7" d="M713.1,42.1c0.8,0,1.5,0.6,1.5,1.4c0,0.8-0.7,1.5-1.5,1.5l-55,0.3c-1,0-1.5-0.7-1.5-1.5
					c0-0.8,0.6-1.4,1.5-1.4L713.1,42.1z M651.9,42.5c0.8,0,1.4,0.6,1.4,1.4c0,0.8-0.6,1.5-1.4,1.5l-8.7,0.1c-0.8,0-1.4-0.7-1.4-1.5
					c0-0.8,0.6-1.4,1.4-1.4L651.9,42.5z M636.6,42.6c0.8,0,1.5,0.6,1.5,1.4c0,0.8-0.7,1.5-1.5,1.5L621,45.6c-0.7,0-1.4-0.7-1.4-1.5
					c0-0.8,0.7-1.4,1.4-1.4L636.6,42.6z"/>
				<path class="st8" d="M724.4,44L724.4,44c0-4.5,3.8-8.2,8.3-8.2h1.1c4.5,0,8.2,3.8,8.2,8.3l0,0c0,4.5-3.8,8.2-8.3,8.2h-1.1
					C728,52.3,724.4,48.5,724.4,44L724.4,44z"/>
			</g>
		</g>
		<g>
			<defs>
				<rect id="SVGID_00000152952174754097048720000011367477264463477420_" x="-89.3" y="-3.2" width="900.2" height="506.4"/>
			</defs>
			<clipPath id="SVGID_00000038398726690922157270000016876763045129838988_">
				<use xlink:href="#SVGID_00000152952174754097048720000011367477264463477420_"  style="overflow:visible;"/>
			</clipPath>
			<g style="clip-path:url(#SVGID_00000038398726690922157270000016876763045129838988_);">
				<path class="st7" d="M59.7,418.2c0.8,0,1.5,0.6,1.5,1.4c0,0.8-0.7,1.5-1.5,1.5l-55,0.3c-1,0-1.5-0.7-1.5-1.5
					c0-0.8,0.6-1.4,1.5-1.4L59.7,418.2z M-1.5,418.6c0.8,0,1.4,0.6,1.4,1.4c0,0.8-0.6,1.5-1.4,1.5l-8.7,0.1c-0.8,0-1.4-0.7-1.4-1.5
					c0-0.8,0.6-1.4,1.4-1.4L-1.5,418.6z M-16.8,418.7c0.8,0,1.5,0.6,1.5,1.4c0,0.8-0.7,1.5-1.5,1.5l-15.6,0.1
					c-0.7,0-1.4-0.7-1.4-1.5c0-0.8,0.7-1.4,1.4-1.4L-16.8,418.7z"/>
				<path class="st8" d="M130.7,448L130.7,448c0,3-2.5,5.5-5.5,5.5l-156.6,0.1c-3,0-5.5-2.5-5.5-5.5l0,0c0-3,2.5-5.5,5.5-5.5
					l156.6,0C128.2,442.5,130.7,445,130.7,448L130.7,448z"/>
				<path class="st8" d="M97.5,418.6L97.5,418.6c0,4.5-3.6,8.3-8.1,8.3h-1.1c-4.5,0.1-8.3-3.6-8.3-8.1l0,0c-0.1-4.5,3.6-8.3,8.1-8.3
					l1.1,0C93.7,410.4,97.4,414.1,97.5,418.6L97.5,418.6z"/>
				<path class="st10" d="M152.7,447.9L152.7,447.9c0-2.6,2.2-4.8,4.8-4.8l33.2,0.2c2.6,0,4.8,2.2,4.8,4.8l0,0
					c0,2.6-2.2,4.8-4.8,4.8l-33.2-0.2C154.8,452.7,152.7,450.5,152.7,447.9L152.7,447.9z"/>
			</g>
		</g>
		<g>
			<defs>
				<rect id="SVGID_00000000196620644862966160000016541919939940595891_" x="-89.3" y="-3.2" width="900.2" height="506.4"/>
			</defs>
			<clipPath id="SVGID_00000103969108976797696080000013621849523111197063_">
				<use xlink:href="#SVGID_00000000196620644862966160000016541919939940595891_"  style="overflow:visible;"/>
			</clipPath>
			<g style="opacity:0.8;clip-path:url(#SVGID_00000103969108976797696080000013621849523111197063_);">
				<g>
					<g>
						<path class="st7" d="M621.9,441.2c-5.3,0-9.5,4.3-9.5,9.5s4.3,9.5,9.5,9.5s9.5-4.3,9.5-9.5
							C631.5,445.5,627.2,441.2,621.9,441.2z"/>
					</g>
					<g>
						<g>
							<path class="st12" d="M621.9,403.7c-5.3,0-9.5,4.3-9.5,9.5c0,5.3,4.3,9.5,9.5,9.5s9.5-4.3,9.5-9.5
								C631.5,407.9,627.2,403.7,621.9,403.7z"/>
						</g>
					</g>
					<g>
						<g>
							<path class="st12" d="M659.8,441.2c-5.3,0-9.5,4.3-9.5,9.5s4.3,9.5,9.5,9.5s9.5-4.3,9.5-9.5S665,441.2,659.8,441.2z"/>
						</g>
					</g>
					<g>
						<circle class="st7" cx="659.8" cy="413.2" r="9.5"/>
					</g>
				</g>
				<g>
					<g>
						<path class="st7" d="M704.2,441.2c-5.3,0-9.5,4.3-9.5,9.5s4.3,9.5,9.5,9.5s9.5-4.3,9.5-9.5
							C713.7,445.5,709.4,441.2,704.2,441.2z"/>
					</g>
					<g>
						<g>
							<circle class="st12" cx="704.2" cy="413.2" r="9.5"/>
						</g>
					</g>
					<g>
						<g>
							<path class="st12" d="M742,441.2c-5.3,0-9.5,4.3-9.5,9.5s4.3,9.5,9.5,9.5s9.5-4.3,9.5-9.5C751.5,445.5,747.2,441.2,742,441.2
								z"/>
						</g>
					</g>
					<g>
						<path class="st7" d="M742,403.7c-5.3,0-9.5,4.3-9.5,9.5c0,5.3,4.3,9.5,9.5,9.5s9.5-4.3,9.5-9.5
							C751.5,407.9,747.2,403.7,742,403.7z"/>
					</g>
				</g>
			</g>
		</g>
		<g>
			<defs>
				<rect id="SVGID_00000100357785648333640730000016968918249774251417_" x="-89.3" y="-3.2" width="900.2" height="506.4"/>
			</defs>
			<clipPath id="SVGID_00000016068628643497037650000015895708278615240857_">
				<use xlink:href="#SVGID_00000100357785648333640730000016968918249774251417_"  style="overflow:visible;"/>
			</clipPath>
			<g style="clip-path:url(#SVGID_00000016068628643497037650000015895708278615240857_);">
				<polygon class="st12" points="749.2,242.4 745.5,238.7 739.5,244.6 733.6,238.7 729.9,242.4 735.8,248.3 729.9,254.3 733.6,258 
					739.5,252 745.5,258 749.2,254.3 743.2,248.3 				"/>
				<polygon class="st7" points="745.5,262.4 739.5,268.3 733.6,262.4 729.9,266 735.8,272 729.9,278 733.6,281.7 739.5,275.7 
					745.5,281.7 749.2,278 743.2,272 749.2,266 				"/>
				<polygon class="st12" points="745.5,286 739.5,292 733.6,286 729.9,289.7 735.8,295.7 729.9,301.6 733.6,305.4 739.5,299.4 
					745.5,305.4 749.2,301.6 743.2,295.7 749.2,289.7 				"/>
			</g>
		</g>
		<g>
			<defs>
				<rect id="SVGID_00000028293215176493630790000002620197600259142291_" x="-89.3" y="-3.2" width="900.2" height="506.4"/>
			</defs>
			<clipPath id="SVGID_00000130638696543087403850000000617416694971595904_">
				<use xlink:href="#SVGID_00000028293215176493630790000002620197600259142291_"  style="overflow:visible;"/>
			</clipPath>
			<g style="clip-path:url(#SVGID_00000130638696543087403850000000617416694971595904_);">
				<g class="st15">
					<g class="st16">
						<g>
							<path class="st7" d="M257.8,229.8v-1.6h2c0.5,0,1-0.2,1.3-0.5c0.3-0.3,0.7-1,1.1-1.9l10.9-28.4h1.9l11.9,30.8h2.8v1.6h-15.4
								v-1.6h3.9l-2.8-7.4h-9.7l-2.1,5.4c-0.1,0.1-0.1,0.2-0.1,0.4c0,0.2,0,0.4,0,0.7c0,0.3,0.1,0.5,0.4,0.6c0.2,0.1,0.6,0.2,1,0.2
								h2.8v1.6L257.8,229.8L257.8,229.8z M266.2,219.2h8.6l-4.2-11.1L266.2,219.2z"/>
						</g>
						<g>
							<path class="st7" d="M291.9,228.2h3.4v-28.7h-3.4V198h17.7c3.3,0,5.9,0.7,7.8,2c1.9,1.4,2.9,3.2,2.9,5.5
								c0,1.9-0.8,3.5-2.3,4.7c-1.5,1.2-3.8,2-6.8,2.4v0.4c3.4,0.3,6,1.1,7.8,2.4c1.7,1.3,2.6,3.2,2.6,5.5c0,2.7-1.1,4.8-3.3,6.4
								c-2.2,1.6-5.2,2.4-9,2.4h-17.4L291.9,228.2L291.9,228.2z M303.2,212.3h3c2.3,0,3.8-0.4,4.6-1.2s1.1-2.5,1.1-5.3
								c0-3-0.3-4.7-1-5.4c-0.6-0.7-2.3-1-5-1h-2.7L303.2,212.3L303.2,212.3z M303.2,228.2h4.3c2.2,0,3.6-0.4,4.3-1.3
								c0.7-0.9,1-2.9,1-6c0-2.9-0.4-4.8-1.2-5.8s-2.4-1.4-4.8-1.4h-3.6V228.2z"/>
						</g>
						<g>
							<path class="st7" d="M327.2,230.2v-9.3h1.9c0.8,2.7,2,4.7,3.6,6.1c1.6,1.4,3.6,2.1,5.9,2.1c2.1,0,3.8-0.5,5.2-1.7
								c1.4-1.1,2.1-2.5,2.1-4.3c0-0.9-0.2-1.7-0.5-2.3c-0.3-0.6-0.9-1.2-1.7-1.7c-0.9-0.6-2.7-1.2-5.3-1.8c-1-0.2-1.7-0.4-2.2-0.5
								c-3.1-0.8-5.3-1.9-6.7-3.4c-1.4-1.5-2.1-3.5-2.1-6.1c0-3,0.9-5.4,2.8-7.2c1.9-1.8,4.3-2.8,7.3-2.8c1.2,0,2.4,0.2,3.4,0.5
								c1.1,0.3,2.1,0.9,3,1.5l1.7-1.4h1.5l0.2,8.4h-1.6c-0.6-2.5-1.6-4.3-3.1-5.6c-1.4-1.3-3.3-1.9-5.4-1.9c-1.8,0-3.3,0.4-4.4,1.3
								c-1.2,0.9-1.7,2-1.7,3.3c0,2,2.1,3.5,6.4,4.4c0.6,0.1,1,0.2,1.3,0.3c4,0.9,6.7,2.2,8.3,3.9c1.6,1.7,2.4,4.1,2.4,7.2
								c0,3.2-1,5.9-3.1,8s-4.6,3.2-7.7,3.2c-1.6,0-3-0.2-4.2-0.5c-1.2-0.4-2.3-0.9-3.3-1.7l-2.2,1.9L327.2,230.2L327.2,230.2z"/>
						</g>
						<g>
							<path class="st7" d="M359.7,229.8v-1.6h3.9v-28.7h-1.7c-2.1,0-3.7,0.6-4.9,1.9c-1.2,1.3-2.3,3.6-3.2,6.9h-1.3l0.4-10.3h29.6
								l0.4,10.3h-1.3c-0.9-3.2-1.9-5.5-3.2-6.8c-1.2-1.3-2.8-2-4.9-2h-1.8v28.7h3.9v1.6H359.7z"/>
						</g>
						<g>
							<path class="st7" d="M385.3,228.2h3.8v-28.7h-3.8V198H403c3.7,0,6.5,0.6,8.4,1.8c1.9,1.2,2.9,2.9,2.9,5.2
								c0,2.3-0.9,4.1-2.7,5.4c-1.8,1.3-4.4,2.1-7.8,2.2v0.4c3.4,0.5,5.9,1.5,7.3,3.2c1.4,1.7,2.1,4.4,2.1,8.1c0,1.5,0.1,2.5,0.5,3
								s0.8,0.7,1.6,0.7c0.3,0,0.6,0,1-0.1c0.4-0.1,0.7-0.2,1.2-0.3l0.5,1.3c-1,0.5-2.1,0.8-3,1.1c-1,0.3-1.8,0.4-2.5,0.4
								c-1.3,0-2.5-0.2-3.6-0.6c-1.1-0.4-1.9-1-2.6-1.7c-1.2-1.4-1.9-4-2.1-7.7c0-0.5,0-0.9-0.1-1.1c-0.1-2.2-0.6-3.7-1.6-4.6
								c-0.9-0.9-2.5-1.3-4.7-1.3H397v14.8h4.2v1.6h-15.9L385.3,228.2L385.3,228.2z M397.1,211.9h4c1.8,0,3-0.4,3.7-1.1
								c0.6-0.8,1-2.4,1-4.8c0-3.1-0.3-4.9-0.8-5.6c-0.5-0.6-1.8-0.9-3.8-0.9h-4V211.9z"/>
						</g>
						<g>
							<path class="st7" d="M418.7,229.8v-1.6h2c0.5,0,1-0.2,1.3-0.5c0.3-0.3,0.7-1,1.1-1.9l10.9-28.4h1.9l11.9,30.8h2.8v1.6h-15.4
								v-1.6h3.9l-2.8-7.4h-9.7l-2.1,5.4c-0.1,0.1-0.1,0.2-0.1,0.4c0,0.2,0,0.4,0,0.7c0,0.3,0.1,0.5,0.4,0.6c0.2,0.1,0.6,0.2,1,0.2
								h2.8v1.6L418.7,229.8L418.7,229.8z M427.2,219.2h8.6l-4.2-11.1L427.2,219.2z"/>
						</g>
						<g>
							<path class="st7" d="M480.2,220.3v9.5h-1.6l-2.1-1.8c-0.9,0.8-2.1,1.5-3.3,1.9c-1.3,0.4-2.7,0.6-4.3,0.6
								c-2.2,0-4.2-0.4-6-1.3c-1.8-0.8-3.5-2.1-5.1-3.9c-1.5-1.7-2.7-3.5-3.5-5.4c-0.8-1.9-1.1-4-1.1-6.1c0-2.1,0.4-4.2,1.2-6.1
								c0.8-1.9,1.9-3.7,3.5-5.4c1.6-1.7,3.3-3,5.1-3.8c1.9-0.8,3.9-1.3,6-1.3c1.3,0,2.6,0.2,3.8,0.6c1.2,0.4,2.3,1,3.4,1.7l1.7-1.6
								h1.6l0.2,8.8h-1.7c-1-2.8-2.3-4.8-3.7-6.1c-1.4-1.2-3.2-1.9-5.4-1.9c-2.5,0-4.1,0.8-5,2.4c-0.9,1.6-1.3,5.6-1.3,12.1
								c0,3.4,0,6,0.1,7.6c0.1,1.7,0.2,2.9,0.4,3.6c0.4,1.6,1,2.7,2,3.4c0.9,0.7,2.2,1,3.8,1c2.2,0,4.3-0.8,6-2.5
								c1.8-1.6,2.9-3.8,3.4-6.4L480.2,220.3L480.2,220.3z"/>
						</g>
						<g>
							<path class="st7" d="M491.2,229.8v-1.6h3.9v-28.7h-1.7c-2.1,0-3.7,0.6-4.9,1.9c-1.2,1.3-2.3,3.6-3.2,6.9H484l0.4-10.3H514
								l0.4,10.3h-1.3c-0.9-3.2-1.9-5.5-3.2-6.8c-1.2-1.3-2.8-2-4.9-2h-1.8v28.7h3.9v1.6H491.2z"/>
						</g>
					</g>
					<g class="st16">
						<g>
							<path class="st7" d="M246.3,259.2v-12.5h-1.4c-0.3,0-0.4-0.1-0.5-0.1c-0.1-0.1-0.2-0.2-0.2-0.4s0.1-0.3,0.2-0.4
								c0.1-0.1,0.3-0.1,0.5-0.1h6.6c1.3,0,2.4,0.4,3.2,1.1c0.8,0.8,1.2,1.6,1.2,2.6c0,1.3-0.7,2.3-2.1,3.1c1.1,0.4,1.9,0.9,2.4,1.6
								c0.5,0.6,0.8,1.4,0.8,2.1c0,0.7-0.2,1.3-0.5,1.9c-0.3,0.6-0.8,1.1-1.5,1.5c-0.7,0.4-1.4,0.6-2.2,0.6h-7.8
								c-0.3,0-0.4-0.1-0.5-0.1c-0.1-0.1-0.2-0.2-0.2-0.4c0-0.2,0.1-0.3,0.2-0.4c0.1-0.1,0.3-0.1,0.5-0.1L246.3,259.2L246.3,259.2z
								 M247.4,252.1h3.7c0.8,0,1.5-0.1,2.2-0.4c0.5-0.2,0.9-0.6,1.2-1c0.3-0.4,0.4-0.9,0.4-1.3c0-0.7-0.3-1.3-0.9-1.8
								c-0.6-0.5-1.4-0.8-2.4-0.8h-4.1V252.1z M247.4,259.2h5.3c0.7,0,1.3-0.1,1.8-0.4c0.5-0.3,0.9-0.7,1.1-1.1s0.4-0.9,0.4-1.4
								c0-0.5-0.2-1-0.5-1.5c-0.4-0.5-0.9-0.9-1.5-1.1c-0.7-0.3-1.6-0.4-2.7-0.4h-3.8L247.4,259.2L247.4,259.2z"/>
						</g>
						<g>
							<path class="st7" d="M284.8,255.4h-6.9l-1.4,3.8h2c0.3,0,0.4,0.1,0.5,0.1c0.1,0.1,0.2,0.2,0.2,0.4s-0.1,0.3-0.2,0.4
								c-0.1,0.1-0.3,0.1-0.5,0.1h-3.9c-0.3,0-0.4-0.1-0.5-0.1c-0.1-0.1-0.2-0.2-0.2-0.4c0-0.2,0.1-0.3,0.2-0.4
								c0.1-0.1,0.3-0.1,0.5-0.1h0.8l4.6-12.5H277c-0.3,0-0.4-0.1-0.5-0.1c-0.1-0.1-0.2-0.2-0.2-0.4s0.1-0.3,0.2-0.4
								c0.1-0.1,0.3-0.1,0.5-0.1h5.3l5.1,13.5h0.8c0.3,0,0.4,0.1,0.5,0.1c0.1,0.1,0.2,0.2,0.2,0.4s-0.1,0.3-0.2,0.4
								c-0.1,0.1-0.3,0.1-0.5,0.1h-3.9c-0.3,0-0.4-0.1-0.5-0.1c-0.1-0.1-0.2-0.2-0.2-0.4c0-0.2,0.1-0.3,0.2-0.4
								c0.1-0.1,0.3-0.1,0.5-0.1h2L284.8,255.4z M284.4,254.3l-2.9-7.6h-0.4l-2.8,7.6H284.4z"/>
						</g>
						<g>
							<path class="st7" d="M316.6,247.1v-0.7c0-0.3,0.1-0.4,0.1-0.5c0.1-0.1,0.2-0.2,0.4-0.2c0.2,0,0.3,0.1,0.4,0.2
								c0.1,0.1,0.1,0.3,0.1,0.5v2.9c0,0.3-0.1,0.4-0.1,0.5s-0.2,0.2-0.4,0.2s-0.3-0.1-0.3-0.1c-0.1-0.1-0.1-0.3-0.2-0.5
								c0-0.7-0.4-1.3-1.1-1.9c-1-0.7-2.1-1.1-3.3-1.1c-0.8,0-1.6,0.2-2.3,0.5c-0.5,0.3-1,0.6-1.3,1c-0.5,0.6-1,1.4-1.3,2.1
								c-0.2,0.6-0.3,1.2-0.3,2v1.8c0,1.6,0.6,2.9,1.7,4.1s2.4,1.7,3.9,1.7c0.9,0,1.7-0.2,2.4-0.6c0.7-0.4,1.4-1,2.1-1.8
								c0.1-0.2,0.3-0.3,0.5-0.3c0.1,0,0.3,0,0.4,0.1s0.1,0.2,0.1,0.3c0,0.2-0.2,0.5-0.5,0.9c-0.7,0.8-1.4,1.3-2.3,1.7
								c-0.8,0.4-1.7,0.6-2.6,0.6c-0.8,0-1.5-0.1-2.3-0.4c-0.6-0.2-1.1-0.5-1.5-0.8c-0.4-0.3-0.9-0.8-1.4-1.5s-1-1.4-1.2-2
								c-0.2-0.6-0.3-1.3-0.3-2v-2.1c0-1,0.3-2.1,0.8-3.2c0.5-1.1,1.3-1.9,2.3-2.5c1-0.6,2-0.9,3.1-0.9
								C313.8,245.3,315.3,245.9,316.6,247.1z"/>
						</g>
						<g>
							<path class="st7" d="M339.2,254.5v4.7h1.9c0.3,0,0.4,0.1,0.5,0.1c0.1,0.1,0.2,0.2,0.2,0.4s-0.1,0.3-0.2,0.4
								c-0.1,0.1-0.3,0.1-0.5,0.1h-4.4c-0.3,0-0.4-0.1-0.5-0.1c-0.1-0.1-0.2-0.2-0.2-0.4c0-0.2,0.1-0.3,0.2-0.4
								c0.1-0.1,0.3-0.1,0.5-0.1h1.4v-12.5h-1.4c-0.3,0-0.4-0.1-0.5-0.1c-0.1-0.1-0.2-0.2-0.2-0.4s0.1-0.3,0.2-0.4
								c0.1-0.1,0.3-0.1,0.5-0.1h4.4c0.3,0,0.4,0.1,0.5,0.1c0.1,0.1,0.2,0.2,0.2,0.4c0,0.2-0.1,0.3-0.2,0.4
								c-0.1,0.1-0.3,0.1-0.5,0.1h-1.9v6.4l7.2-6.4h-1.1c-0.3,0-0.4-0.1-0.5-0.1c-0.1-0.1-0.2-0.2-0.2-0.4s0.1-0.3,0.2-0.4
								c0.1-0.1,0.3-0.1,0.5-0.1h3.1c0.3,0,0.4,0.1,0.5,0.1c0.1,0.1,0.2,0.2,0.2,0.4c0,0.2-0.1,0.3-0.2,0.4
								c-0.1,0.1-0.3,0.1-0.5,0.1h-0.4l-5.8,5.1c0.9,0.3,1.6,0.8,2.1,1.3c0.6,0.5,1.1,1.3,1.6,2.2c0.3,0.5,0.8,1.8,1.6,3.8h1.3
								c0.3,0,0.4,0.1,0.5,0.1c0.1,0.1,0.2,0.2,0.2,0.4s-0.1,0.3-0.2,0.4c-0.1,0.1-0.3,0.1-0.5,0.1h-2c-1.1-3-2-4.9-2.8-5.8
								c-0.8-0.9-1.7-1.5-2.8-1.8L339.2,254.5z"/>
						</g>
						<g>
							<path class="st7" d="M378.8,254.8v4.5c-0.8,0.4-1.6,0.8-2.4,1c-0.8,0.2-1.6,0.3-2.4,0.3c-1.1,0-2.1-0.2-3-0.5
								s-1.6-0.8-2.2-1.4c-0.6-0.6-1-1.3-1.4-2c-0.3-0.7-0.5-1.7-0.5-2.8V252c0-1.1,0.3-2.3,0.9-3.3c0.6-1.1,1.3-1.9,2.3-2.5
								c1-0.6,2.1-0.9,3.2-0.9c1.7,0,3.1,0.5,4.3,1.4c0-0.4,0-0.7,0-0.7c0-0.1,0.1-0.2,0.2-0.2c0.1-0.1,0.2-0.1,0.3-0.1
								c0.1,0,0.3,0.1,0.4,0.2c0.1,0.1,0.1,0.3,0.1,0.5v2.4c0,0.3-0.1,0.4-0.1,0.5c-0.1,0.1-0.2,0.2-0.4,0.2s-0.3-0.1-0.3-0.1
								c-0.1-0.1-0.1-0.3-0.2-0.5c-0.1-0.7-0.5-1.3-1.4-1.7c-0.9-0.4-1.8-0.7-2.8-0.7c-1,0-1.8,0.2-2.6,0.6
								c-0.8,0.4-1.5,1.2-2.2,2.4c-0.4,0.8-0.7,1.6-0.7,2.6v1.9c0,1.7,0.5,3.1,1.6,4.1c1.1,1,2.5,1.5,4.4,1.5c0.6,0,1.2-0.1,1.8-0.2
								s1.2-0.4,1.9-0.7v-3.9h-3.6c-0.3,0-0.4-0.1-0.5-0.1c-0.1-0.1-0.2-0.2-0.2-0.4c0-0.2,0.1-0.3,0.2-0.4c0.1-0.1,0.3-0.1,0.5-0.1
								l5,0c0.3,0,0.4,0.1,0.5,0.1c0.1,0.1,0.2,0.2,0.2,0.4c0,0.1,0,0.2-0.1,0.3c-0.1,0.1-0.1,0.1-0.2,0.2
								C379.5,254.8,379.2,254.8,378.8,254.8z"/>
						</g>
						<g>
							<path class="st7" d="M400.3,253.7v5.4h1.9c0.3,0,0.4,0.1,0.5,0.1c0.1,0.1,0.2,0.2,0.2,0.4s-0.1,0.3-0.2,0.4
								c-0.1,0.1-0.3,0.1-0.5,0.1h-4.4c-0.3,0-0.4-0.1-0.5-0.1c-0.1-0.1-0.2-0.2-0.2-0.4c0-0.2,0.1-0.3,0.2-0.4
								c0.1-0.1,0.3-0.1,0.5-0.1h1.4v-12.5h-1.4c-0.3,0-0.4-0.1-0.5-0.1c-0.1-0.1-0.2-0.2-0.2-0.4s0.1-0.3,0.2-0.4
								c0.1-0.1,0.3-0.1,0.5-0.1h6.3c1.3,0,2.4,0.4,3.3,1.2c0.9,0.8,1.3,1.8,1.3,2.8c0,0.8-0.3,1.4-0.8,2.1
								c-0.5,0.7-1.5,1.2-2.8,1.6c0.8,0.5,1.4,1.1,1.9,1.7c0.5,0.6,1.4,2,2.5,4h0.8c0.3,0,0.4,0.1,0.5,0.1c0.1,0.1,0.2,0.2,0.2,0.4
								s-0.1,0.3-0.2,0.4c-0.1,0.1-0.3,0.1-0.5,0.1h-1.4c-1.3-2.3-2.3-3.9-3-4.7s-1.5-1.4-2.4-1.8L400.3,253.7L400.3,253.7z
								 M400.3,252.7h2.9c0.9,0,1.7-0.2,2.5-0.5c0.7-0.3,1.3-0.7,1.6-1.2s0.5-0.9,0.5-1.4c0-0.7-0.3-1.4-1-2c-0.7-0.6-1.6-1-2.6-1
								h-3.8L400.3,252.7L400.3,252.7z"/>
						</g>
						<g>
							<path class="st7" d="M440.7,253c0,1.4-0.3,2.7-0.8,3.9c-0.6,1.2-1.3,2.1-2.3,2.8s-2.1,1-3.2,1c-1.7,0-3.2-0.7-4.5-2.1
								c-1.3-1.4-1.9-3.3-1.9-5.5c0-2.3,0.6-4.1,1.9-5.5c1.3-1.4,2.8-2.1,4.5-2.1c1.1,0,2.2,0.3,3.2,1s1.8,1.6,2.3,2.8
								C440.4,250.3,440.7,251.6,440.7,253z M439.7,253c0-1.7-0.5-3.2-1.5-4.6c-1-1.4-2.3-2-3.8-2c-1.5,0-2.7,0.6-3.8,1.9
								s-1.6,2.8-1.6,4.7c0,1.9,0.5,3.5,1.6,4.8c1.1,1.2,2.3,1.9,3.7,1.9c1.6,0,2.8-0.7,3.8-2C439.2,256.2,439.7,254.7,439.7,253z"
								/>
						</g>
						<g>
							<path class="st7" d="M470,246.7v8.7c0,1.5-0.5,2.7-1.5,3.7c-1,1-2.2,1.5-3.6,1.5c-0.9,0-1.8-0.2-2.5-0.6
								c-0.7-0.4-1.3-1-1.8-1.9c-0.5-0.8-0.8-1.7-0.8-2.7v-8.7H459c-0.3,0-0.4-0.1-0.5-0.1c-0.1-0.1-0.2-0.2-0.2-0.4
								c0-0.2,0.1-0.3,0.2-0.4c0.1-0.1,0.3-0.1,0.5-0.1h3.9c0.3,0,0.4,0.1,0.5,0.1c0.1,0.1,0.2,0.2,0.2,0.4c0,0.2-0.1,0.3-0.2,0.4
								c-0.1,0.1-0.3,0.1-0.5,0.1h-1.9v8.7c0,1.2,0.4,2.1,1.2,2.9c0.8,0.8,1.7,1.2,2.8,1.2c0.7,0,1.3-0.2,1.9-0.5
								c0.6-0.3,1.1-0.8,1.5-1.5c0.4-0.7,0.6-1.4,0.6-2.2v-8.7H467c-0.3,0-0.4-0.1-0.5-0.1c-0.1-0.1-0.2-0.2-0.2-0.4
								c0-0.2,0.1-0.3,0.2-0.4c0.1-0.1,0.3-0.1,0.5-0.1h3.9c0.3,0,0.4,0.1,0.5,0.1c0.1,0.1,0.2,0.2,0.2,0.4c0,0.2-0.1,0.3-0.2,0.4
								c-0.1,0.1-0.3,0.1-0.5,0.1L470,246.7L470,246.7z"/>
						</g>
						<g>
							<path class="st7" d="M500.7,260.2h-1.3l-7.7-13v12h1.9c0.3,0,0.4,0.1,0.5,0.1c0.1,0.1,0.2,0.2,0.2,0.4s-0.1,0.3-0.2,0.4
								c-0.1,0.1-0.3,0.1-0.5,0.1h-3.8c-0.3,0-0.4-0.1-0.5-0.1c-0.1-0.1-0.2-0.2-0.2-0.4c0-0.2,0.1-0.3,0.2-0.4
								c0.1-0.1,0.3-0.1,0.5-0.1h0.9v-12.5h-1.4c-0.3,0-0.4-0.1-0.5-0.1c-0.1-0.1-0.2-0.2-0.2-0.4s0.1-0.3,0.2-0.4
								c0.1-0.1,0.3-0.1,0.5-0.1h2.7l7.7,13v-12h-1.9c-0.3,0-0.4-0.1-0.5-0.1c-0.1-0.1-0.2-0.2-0.2-0.4c0-0.2,0.1-0.3,0.2-0.4
								c0.1-0.1,0.3-0.1,0.5-0.1h3.9c0.3,0,0.4,0.1,0.5,0.1c0.1,0.1,0.2,0.2,0.2,0.4c0,0.2-0.1,0.3-0.2,0.4
								c-0.1,0.1-0.3,0.1-0.5,0.1h-0.9L500.7,260.2L500.7,260.2z"/>
						</g>
						<g>
							<path class="st7" d="M522,259.2v-12.5h-0.9c-0.3,0-0.4-0.1-0.5-0.1c-0.1-0.1-0.2-0.2-0.2-0.4s0.1-0.3,0.2-0.4
								c0.1-0.1,0.3-0.1,0.5-0.1h5.6c0.9,0,1.7,0.2,2.4,0.5c0.7,0.4,1.3,0.8,1.7,1.2c0.7,0.8,1.2,1.6,1.5,2.5
								c0.2,0.6,0.4,1.4,0.4,2.3v1.4c0,1.1-0.2,2.1-0.7,3.1c-0.5,1-1.3,1.9-2.4,2.6c-0.8,0.5-1.8,0.8-2.8,0.8h-5.6
								c-0.3,0-0.4-0.1-0.5-0.1s-0.2-0.2-0.2-0.4c0-0.2,0.1-0.3,0.2-0.4c0.1-0.1,0.3-0.1,0.5-0.1L522,259.2L522,259.2z M523.1,259.2
								h3.8c0.9,0,1.7-0.3,2.5-0.9c0.8-0.6,1.3-1.3,1.7-2.1s0.6-1.6,0.6-2.4V252c0-0.6-0.1-1.2-0.3-1.7c-0.3-0.7-0.7-1.4-1.3-2.1
								c-0.3-0.4-0.7-0.7-1.3-1c-0.6-0.3-1.2-0.5-1.9-0.5h-3.8L523.1,259.2L523.1,259.2z"/>
						</g>
					</g>
				</g>
				<g>
					<path class="st7" d="M552.2,289H228.1V166.6h324.1V289z M229.6,287.5h321.1V168.1H229.6V287.5z"/>
				</g>
			</g>
		</g>
		<g>
			<defs>
				<rect id="SVGID_00000120557086514174927730000003039223117636039355_" x="-89.3" y="-3.2" width="900.2" height="506.4"/>
			</defs>
			<clipPath id="SVGID_00000068665200731798497200000016609091775118467750_">
				<use xlink:href="#SVGID_00000120557086514174927730000003039223117636039355_"  style="overflow:visible;"/>
			</clipPath>
			<g style="clip-path:url(#SVGID_00000068665200731798497200000016609091775118467750_);">
				<g>
					<path class="st12" d="M415.1,44.1c-3.7,0-5.5-2.9-7.1-5.5c-1.5-2.4-2.8-4.5-5.4-4.5c-2.6,0-3.9,2.1-5.4,4.5
						c-1.6,2.6-3.4,5.5-7.1,5.5c-3.7,0-5.5-2.9-7.1-5.5c-1.5-2.4-2.8-4.5-5.4-4.5c-2.6,0-3.9,2.1-5.4,4.5c-1.6,2.6-3.4,5.5-7.1,5.5
						c-3.7,0-5.5-2.9-7.1-5.5c-1.5-2.4-2.8-4.5-5.4-4.5c-2.6,0-3.9,2.1-5.4,4.5c-1.6,2.6-3.4,5.5-7.1,5.5c-3.7,0-5.5-2.9-7.1-5.5
						c-1.5-2.4-2.8-4.5-5.4-4.5c-0.6,0-1-0.5-1-1c0-0.6,0.5-1,1-1c3.7,0,5.5,2.9,7.1,5.5c1.5,2.4,2.8,4.5,5.4,4.5s3.9-2.1,5.4-4.5
						c1.6-2.6,3.4-5.5,7.1-5.5c3.7,0,5.5,2.9,7.1,5.5c1.5,2.4,2.8,4.5,5.4,4.5c2.6,0,3.9-2.1,5.4-4.5c1.6-2.6,3.4-5.5,7.1-5.5
						c3.7,0,5.5,2.9,7.1,5.5c1.5,2.4,2.8,4.5,5.4,4.5c2.6,0,3.9-2.1,5.4-4.5c1.6-2.6,3.4-5.5,7.1-5.5c3.7,0,5.5,2.9,7.1,5.5
						c1.5,2.4,2.8,4.5,5.4,4.5s3.9-2.1,5.4-4.5c1.6-2.6,3.4-5.5,7.1-5.5c0.6,0,1,0.5,1,1c0,0.6-0.5,1-1,1c-2.6,0-3.9,2.1-5.4,4.5
						C420.7,41.2,418.8,44.1,415.1,44.1z"/>
				</g>
				<g>
					<path class="st7" d="M415.1,65c-3.7,0-5.5-2.9-7.1-5.5c-1.5-2.4-2.8-4.5-5.4-4.5c-2.6,0-3.9,2.1-5.4,4.5
						c-1.6,2.6-3.4,5.5-7.1,5.5c-3.7,0-5.5-2.9-7.1-5.5c-1.5-2.4-2.8-4.5-5.4-4.5c-2.6,0-3.9,2.1-5.4,4.5c-1.6,2.6-3.4,5.5-7.1,5.5
						c-3.7,0-5.5-2.9-7.1-5.5c-1.5-2.4-2.8-4.5-5.4-4.5c-2.6,0-3.9,2.1-5.4,4.5c-1.6,2.6-3.4,5.5-7.1,5.5c-3.7,0-5.5-2.9-7.1-5.5
						c-1.5-2.4-2.8-4.5-5.4-4.5c-0.6,0-1-0.5-1-1c0-0.6,0.5-1,1-1c3.7,0,5.5,2.9,7.1,5.5c1.5,2.4,2.8,4.5,5.4,4.5s3.9-2.1,5.4-4.5
						c1.6-2.6,3.4-5.5,7.1-5.5c3.7,0,5.5,2.9,7.1,5.5c1.5,2.4,2.8,4.5,5.4,4.5c2.6,0,3.9-2.1,5.4-4.5c1.6-2.6,3.4-5.5,7.1-5.5
						c3.7,0,5.5,2.9,7.1,5.5c1.5,2.4,2.8,4.5,5.4,4.5c2.6,0,3.9-2.1,5.4-4.5c1.6-2.6,3.4-5.5,7.1-5.5c3.7,0,5.5,2.9,7.1,5.5
						c1.5,2.4,2.8,4.5,5.4,4.5s3.9-2.1,5.4-4.5c1.6-2.6,3.4-5.5,7.1-5.5c0.6,0,1,0.5,1,1c0,0.6-0.5,1-1,1c-2.6,0-3.9,2.1-5.4,4.5
						C420.7,62.1,418.8,65,415.1,65z"/>
				</g>
			</g>
		</g>
		<g>
			<defs>
				<rect id="SVGID_00000163044225437551402230000004431150527541116323_" x="-89.3" y="-3.2" width="900.2" height="506.4"/>
			</defs>
			<clipPath id="SVGID_00000061436749420662033270000000512024515234817466_">
				<use xlink:href="#SVGID_00000163044225437551402230000004431150527541116323_"  style="overflow:visible;"/>
			</clipPath>
			<g style="clip-path:url(#SVGID_00000061436749420662033270000000512024515234817466_);">
				<polygon class="st12" points="-17.5,242.4 -21.2,238.7 -27.2,244.6 -33.1,238.7 -36.8,242.4 -30.8,248.3 -36.8,254.3 -33.1,258 
					-27.2,252 -21.2,258 -17.5,254.3 -23.5,248.3 				"/>
				<polygon class="st7" points="-21.2,262.4 -27.2,268.3 -33.1,262.4 -36.8,266 -30.8,272 -36.8,278 -33.1,281.7 -27.2,275.7 
					-21.2,281.7 -17.5,278 -23.5,272 -17.5,266 				"/>
				<polygon class="st12" points="-21.2,286 -27.2,292 -33.1,286 -36.8,289.7 -30.8,295.7 -36.8,301.6 -33.1,305.4 -27.2,299.4 
					-21.2,305.4 -17.5,301.6 -23.5,295.7 -17.5,289.7 				"/>
			</g>
		</g>
		<g>
			<defs>
				<rect id="SVGID_00000131329607347554771640000016920874207891904170_" x="-89.3" y="-3.2" width="900.2" height="506.4"/>
			</defs>
			<clipPath id="SVGID_00000107556966830948078480000016689349482886888075_">
				<use xlink:href="#SVGID_00000131329607347554771640000016920874207891904170_"  style="overflow:visible;"/>
			</clipPath>
			<path style="clip-path:url(#SVGID_00000107556966830948078480000016689349482886888075_);fill:#FACB5F;" d="M7.3,36.5
				c0,21.9,17.7,39.7,39.6,39.7c21.9,0,39.7-17.7,39.7-39.6L7.3,36.5z"/>
		</g>
		<g>
			<defs>
				<rect id="SVGID_00000080204842837574782620000014843780092708757398_" x="-89.3" y="-3.2" width="900.2" height="506.4"/>
			</defs>
			<clipPath id="SVGID_00000080194053567286154910000009492871320990111370_">
				<use xlink:href="#SVGID_00000080204842837574782620000014843780092708757398_"  style="overflow:visible;"/>
			</clipPath>
			
				<line style="clip-path:url(#SVGID_00000080194053567286154910000009492871320990111370_);fill:none;" x1="532.7" y1="-3.2" x2="811" y2="-3.2"/>
		</g>
	</g>
</g>
<rect x="257.2" y="208.4" class="st21" width="268.6" height="41.6"/>
<g class="st22">
	<path class="st7" d="M287.6,205.5h1.3c-0.1,1.7-0.3,3-0.8,3.9c-0.6,1.2-1.6,2.1-2.8,2.8c-1.2,0.7-2.6,1.1-4.1,1.1
		c-1.6,0-3.5-0.4-5.7-1.3v7.8h9.2l-1.7,4.4h-7.5v13.9c0,2.8-0.2,4.8-0.6,6c-0.4,1.3-1.1,2.5-2.2,3.6c-1.1,1.2-2.5,2.1-4.2,2.9
		c-2.4,1.1-4.3,1.9-5.8,2.4l-12.3,4.1c-3.9-1.4-6.1-2.2-6.7-2.2c-0.5,0-1,0.2-1.5,0.6c-0.4,0.4-0.7,1-0.9,1.9l-1.2-0.3
		c0-1.4,0.2-2.4,0.5-3.2c0.5-1.3,1.3-2.2,2.2-2.9c1-0.6,2-1,3.1-1c1.5,0,3.5,0.5,6,1.6c1.7,0.8,2.8,1.2,3.2,1.3
		c0.4,0.1,0.7,0.2,1.1,0.2c0.6,0,1.2-0.2,1.7-0.7c0.5-0.5,0.8-1.3,1-2.3c0.1-1,0.2-3.2,0.2-6.4v-19.7l-1.8,0c-3,0-5.3,0.3-6.7,1
		c-1.5,0.7-2.7,1.9-3.8,3.5l-1.1-0.5c0.8-2.6,1.8-4.4,3.1-5.6c2.2-1.9,5.1-2.9,8.9-2.9c0.3,0,0.8,0,1.4,0v-6.2l2,0.1
		c2.2,0,4.4-0.4,6.5-1.3c2.1-0.9,3.9-2,5.4-3.2c1-0.8,2-2.1,3.1-3.6c3.2,2.1,5.8,3.1,7.9,3.1c0.9,0,1.7-0.2,2.3-0.7
		C286.8,207.3,287.3,206.5,287.6,205.5z M269.6,213.2c-1.3,0.7-2.8,1.2-4.5,1.6v23.6c0,0.8-0.1,2.4-0.2,4.6c-0.1,1.3-0.3,2.3-0.5,3
		c-0.3,1-0.8,2-1.5,2.9c-0.6,0.9-1.7,2.1-3.3,3.5c2.6-0.9,4.6-2.1,6.1-3.5c1.5-1.4,2.5-2.9,3-4.5c0.5-1.6,0.8-4,0.8-7.2V213.2z"/>
	<path class="st7" d="M316.2,205.5c3.4,0.4,6.1,0.8,8,1.5c2.9,0.9,5.4,2.2,7.6,3.9c2.2,1.7,3.9,3.7,5.1,6c1.2,2.3,1.8,4.8,1.8,7.5
		c0,2.5-0.6,5-1.9,7.4c-1.3,2.4-3.5,5.2-6.6,8.2s-6.3,5.4-9.5,7c-3.2,1.6-6.3,2.4-9.4,2.4c-3.3,0-6.4-0.8-9.5-2.4
		c-3.1-1.6-5.4-3.9-7.1-6.7c-1.7-2.8-2.5-6-2.5-9.4c0-2,0.2-3.9,0.6-5.7c0.4-1.8,1.1-3.9,2.1-6.4c1.9-1,4.2-2.3,6.8-4
		c1.4-0.9,4.9-3.1,10.5-6.7C313.5,207.3,314.8,206.5,316.2,205.5z M304,215c-1.7,1.2-2.9,2.3-3.6,3.1c-1,1.1-1.8,2.5-2.4,4.1
		c-0.6,1.6-1,3.4-1,5.3c0,4.1,1.6,8,4.8,11.6c0.9-0.8,1.5-1.7,1.8-2.5c0.3-0.8,0.4-2.5,0.4-4.9V215z M314,211.3
		c-1.3-0.1-2.6-0.1-3.9-0.2v17.3c0,1.9-0.1,3.2-0.4,3.9c-0.3,0.7-0.7,1.5-1.4,2.3l-5.4,5.2c1.8,1.6,3.6,2.7,5.2,3.3
		c1.6,0.7,3.6,1.1,5.9,1.2V211.3z M315.2,219.1c1.4,1.2,2.7,2.1,4,2.6c1.3,0.5,2.6,0.8,4.1,0.8c1.4,0,2.6-0.3,3.8-0.8
		c1.2-0.5,2.4-1.4,3.7-2.6c-1.1-1.4-2.2-2.5-3.1-3.2c-1.8-1.3-3.7-2.3-5.7-3c-2-0.7-4.3-1.2-6.8-1.5V219.1z M315.2,231.4
		c1.4-1.4,2.7-2.3,3.9-2.9c1.2-0.5,2.6-0.8,4.2-0.8c1.7,0,3.2,0.3,4.5,0.9c1.3,0.6,2.8,1.6,4.3,3.1c0.5-1.9,0.8-3.6,0.8-5
		c0-1.3-0.1-2.5-0.3-3.4c-0.2-0.7-0.5-1.6-1-2.7c-1.7,1.4-3.2,2.3-4.4,2.8c-1.3,0.5-2.6,0.7-4.2,0.7c-1.4,0-2.7-0.2-3.8-0.7
		c-1.2-0.5-2.5-1.3-4-2.5V231.4z M315.2,244.5c2.5-0.1,4.5-0.5,6-1.2c2.3-1,4.4-2.4,6.1-4.1c1.7-1.8,3.1-3.9,4.3-6.4
		c-2.7-2.5-5.5-3.8-8.3-3.8c-1.6,0-3.2,0.4-4.7,1.3c-1.1,0.6-2.2,1.7-3.4,3.2V244.5z"/>
	<path class="st7" d="M373,205.7l10.1,12.9l-9.4,6.4c2.7,1.6,4.8,3.5,6.5,5.7c1.6,2.2,2.9,5,3.8,8.5c0.4,1.7,0.8,2.9,1.3,3.7
		c0.3,0.5,0.8,1.1,1.6,1.8l2.9-2.5l1,1.1l-7.1,6c-1.4-0.9-2.5-1.9-3.1-2.9c-0.5-0.7-1.3-3-2.5-7c-0.6-2.1-1.5-3.9-2.5-5.4
		c-1-1.5-2.1-2.6-3.2-3.4c-1.1-0.8-2.6-1.4-4.5-2.1l-2,1.3v12.2c1.8,0.6,3.7,1.4,5.6,2.5l3-2.7l0.9,1l-7.6,6.3
		c-2.8-1.4-5.2-2.4-7.2-3c-2-0.6-4.1-0.9-6.2-0.9c-2.6,0-5.1,0.4-7.5,1.3c-1.3,0.5-2.7,1.3-4.3,2.5l-0.8-0.7
		c1.9-2.5,3.9-4.3,5.9-5.5c2-1.2,4.4-2,7.2-2.4v-1.3c0-1.9-0.2-3.4-0.7-4.6c-0.5-1.2-1.4-2.5-2.7-3.8c-1.3-1.3-2.7-2.4-4.1-3.2
		c-0.9-0.5-2.2-1.1-3.9-1.6V225c1.6-0.6,3.5-1.7,5.9-3.2l5.5-3.7c0-2.5-0.2-4.3-0.5-5.4c-0.4-1.1-1-2-2.1-2.7s-2.2-1.1-3.4-1.1
		c-0.8,0-1.5,0.1-2.1,0.4c-0.6,0.2-1.4,0.7-2.3,1.3l-1-0.7c1.5-1.6,2.9-2.6,4.1-3.2s2.7-0.8,4.5-0.8c2,0,3.7,0.4,5,1.2
		c1.3,0.8,2.3,1.9,3,3.3c0.4,0.8,0.6,2.1,0.7,3.6L373,205.7z M355.1,219.7l-6.5,4.4c1.2,0.6,2.3,1.2,3.1,1.8c0.8,0.6,2,1.6,3.5,2.9
		V219.7z M364.6,213.1l-3.5,2.4v25.4c1.2,0.2,2.3,0.4,3.5,0.8V213.1z M369.1,210.1l-3.1,2.1v16.2l11.5-7.7L369.1,210.1z"/>
	<path class="st7" d="M431.1,204.9c2,0.5,3.6,1.3,4.6,2.4c1.5,1.5,2.2,3.2,2.2,5.1c0,1.6-0.6,3.2-1.7,4.9c-1.1,1.7-3.2,3.7-6.3,6
		c2.6,0.2,4.5,0.7,5.8,1.3c1.2,0.6,2.1,1.4,2.6,2.4s0.7,2.6,0.7,4.9V242c-7,0.8-12.9,3.2-17.8,7.3c-1.7-1.2-3.3-2-4.8-2.5
		c-2.5-0.8-5.1-1.2-7.9-1.2c-3.5,0-6.2,0.7-8.3,2.1c-1.4,0.9-2.1,1.9-2.1,2.8c0,0.4,0.2,0.9,0.6,1.6c0.4,0.7,0.6,1.2,0.6,1.7
		c0,0.4-0.1,0.7-0.4,1c-0.3,0.3-0.6,0.4-1,0.4c-0.5,0-1-0.3-1.5-0.8c-0.4-0.5-0.7-1.2-0.7-2c0-0.8,0.3-1.6,0.8-2.6
		c0.5-1,1.7-2.4,3.5-4.2c1.8-1.8,2.9-3.1,3.4-4c0.5-0.8,0.7-1.6,0.7-2.3c0-0.9-0.3-1.6-0.9-2.1c-0.6-0.6-1.3-0.8-2.2-0.8
		c-0.8,0-1.5,0.2-2,0.7c-0.5,0.5-0.8,1.2-1,2.2l-1.1,0c0-0.4,0-0.6,0-0.8c0-1.6,0.6-3,1.7-4c1.1-1.1,2.6-1.6,4.4-1.6
		c0.2,0,0.5,0,1,0c0-1.9-0.3-3.3-0.9-4.2c-0.9-1.4-2.2-2.1-3.9-2.1c-1.1,0-2.1,0.3-2.9,0.9c-0.4,0.3-0.9,0.9-1.3,1.8l-1.1-0.4
		c0.2-1.9,0.9-3.4,2.2-4.5c1.3-1.1,2.9-1.7,4.8-1.7c0.7,0,1.6,0.1,2.7,0.2c0.1-2.8,0.3-4.8,0.8-6c0.4-1.3,1.2-2.4,2.2-3.5
		c1-1,2.9-2.5,5.8-4.3c-2.7,0.9-4.9,1.3-6.8,1.3c-1.2,0-2.8-0.2-4.7-0.7c-1.1-0.3-1.9-0.4-2.4-0.4c-0.9,0-1.6,0.3-2.2,0.9
		c-0.6,0.6-1,1.7-1.2,3.2h-1.1c0.1-1.8,0.4-3.3,1-4.5c0.6-1.2,1.5-2.2,2.7-2.9c1.2-0.7,2.5-1.1,3.9-1.1c1,0,2.7,0.3,5.1,0.9
		c2.4,0.6,4.3,0.9,5.8,0.9c1.1,0,2.1-0.1,3.1-0.4c1-0.2,2.3-0.7,4-1.4l0.6,1.3c-4.2,2.1-7.1,4.1-8.5,6c-1.4,1.9-2.1,4.5-2.1,7.8V232
		c0,2.6-0.3,4.7-0.9,6.2c-0.6,1.5-1.8,3.1-3.6,5c3.5-1.5,5.8-3,7-4.7c1.2-1.7,1.8-4.2,1.8-7.4v-8.7c0-4,0.4-6.9,1.1-8.5
		c0.7-1.7,2-3.1,3.9-4.3C420.6,208.4,424.7,206.8,431.1,204.9z M426,207.7c-2.1,1-3.5,1.8-4.3,2.4c-0.7,0.7-1.2,1.5-1.5,2.4
		c-0.3,0.9-0.4,2.4-0.4,4.6v12c0,2.2-0.2,3.8-0.6,4.9c-0.4,1.1-1.1,2.2-2.3,3.2c-1.1,1-3.4,2.6-6.8,4.6c1.8-0.3,3.6-0.4,5.1-0.4
		c2.7,0,5.3,0.4,7.7,1.1V218h1.3v7.6c2.7-1.6,4.7-3.3,6-5c1.3-1.7,1.9-3.6,1.9-5.6c0-1.6-0.5-3.1-1.5-4.2
		C429.6,209.7,428.1,208.6,426,207.7z M424.2,229.9c1.6,0.6,3.1,0.9,4.3,0.9c1.3,0,2.7-0.3,4.3-0.9c0-1.3-0.3-2.4-0.9-3.3
		c-0.6-0.8-1.7-1.6-3.4-2.3c-2.1,1.4-3.6,2.3-4.3,2.7V229.9z M432.9,231.2c-1.6,0.6-3.1,0.9-4.3,0.9c-1.3,0-2.8-0.3-4.3-0.9v5.2
		c1.5-0.5,2.9-0.8,4.2-0.8c1.3,0,2.8,0.3,4.5,0.8V231.2z M432.9,237.8c-1.8-0.6-3.3-1-4.6-1c-1.3,0-2.7,0.3-4.1,1v5.2
		c0.8,0.4,1.6,0.8,2.4,1.3c2-1,4.1-1.9,6.3-2.5V237.8z"/>
	<path class="st7" d="M489.9,206.4l0.9,0.9c-1.7,2.1-2.7,3.6-3.1,4.5c-0.4,1-0.6,2.4-0.6,4.2V237c0,2.9,0.2,4.7,0.7,5.5
		c0.5,0.8,1.1,1.1,1.7,1.1c0.5,0,1-0.3,1.6-0.9l0.5,1.7l-6.2,4.9c-1.7-1.1-2.8-2.1-3.4-3.1c-0.6-1-0.9-2.7-1.1-5.1
		c-3.1,3-6,5.1-8.8,6.3c-2.8,1.2-5.8,1.9-9,1.9c-6,0-10.5-2.2-13.7-6.5c-2.4-3.2-3.6-6.9-3.6-11.1c0-3.1,0.7-6,2.1-8.8
		c1.4-2.7,3.4-5.3,6.2-7.8c1.9-1.7,4.4-3.5,7.5-5.4c-2.5,0.6-4.3,0.9-5.5,0.9c-0.9,0-1.9,0-3-0.1c-1.1-0.1-2-0.1-2.7-0.1
		c-1.6,0-2.9,0.5-3.9,1.5c-0.9,1-1.4,2.4-1.4,4.1c0,0.6,0.1,1.5,0.2,2.4h-1.2c-0.2-1.4-0.4-2.5-0.4-3.4c0-3.1,0.8-5.6,2.4-7.4
		c1.6-1.8,3.5-2.7,5.7-2.7c0.6,0,1.2,0.1,1.8,0.2c0.4,0.1,1.5,0.5,3.5,1.2c2,0.7,3.8,1.1,5.4,1.1c1.4,0,2.7-0.3,4-0.8
		c0.6-0.3,1.4-0.8,2.2-1.6h1.3v16.4c2,1.1,3.9,1.6,5.7,1.6c0.9,0,1.8-0.1,2.5-0.3c0.7-0.2,1.6-0.7,2.7-1.3v-8.5l-3.3-2.4l-3.3,3.7
		l-1-0.9l7.1-7.9l6.2,4.5L489.9,206.4z M456.6,241.3c1.3-1.4,2.2-2.7,2.6-3.9c0.4-1.2,0.6-3.4,0.6-6.5v-8.7c0-2.3,0.1-3.7,0.2-4.4
		c0.1-0.7,0.4-1.5,1-2.3c0.9-1.5,2.4-3.5,4.5-6c-3.1,1.8-5.6,3.5-7.4,5.2c-1.8,1.7-3.4,3.8-4.6,6.3c-1.2,2.5-1.8,5.3-1.8,8.4
		c0,2.7,0.5,5.2,1.5,7.5C453.9,238.3,455.1,239.8,456.6,241.3z M468.7,207.8c-1.2,1.3-2,2.5-2.4,3.5c-0.3,1-0.5,3.1-0.5,6.1v13.6
		c0,1.5-0.1,2.6-0.3,3.3c-0.3,0.9-0.8,1.8-1.6,2.7c-1.1,1.3-3.2,3-6.1,5.2c1.4,1,2.7,1.6,4,2c1.2,0.4,2.7,0.6,4.4,0.6
		c0.8,0,1.7-0.1,2.6-0.2V207.8z M481,222.9c-1.2,0.6-2.1,1-2.9,1.2c-0.7,0.2-1.6,0.3-2.5,0.3c-1.7,0-3.6-0.5-5.6-1.5v6.8
		c2.1-0.9,4-1.3,5.6-1.3c1.6,0,3.4,0.4,5.3,1.3V222.9z M481,231.1c-2-1-3.7-1.4-5.3-1.4c-1,0-1.8,0.1-2.6,0.3
		c-0.8,0.2-1.8,0.7-3,1.3v13.1c2-0.4,3.7-1,5.3-1.7c1.6-0.8,3.5-1.9,5.6-3.4V231.1z"/>
	<path class="st7" d="M511.9,205.5l13.2,4.4l1-1.7c0.4-0.6,0.6-1,0.8-1.2c0.1-0.1,0.3-0.2,0.5-0.2c0.2,0,0.4,0.1,0.5,0.2
		c0.1,0.1,0.2,0.3,0.2,0.5c0,0.3-0.2,0.8-0.7,1.6l-6.4,10.9l5.1-0.3c1.5-0.1,3.3,0.2,5.3,0.6c2,0.5,3.8,1.2,5.2,2.3
		c1.5,1,2.6,2.2,3.4,3.6c0.8,1.4,1.2,2.9,1.2,4.6c0,3.1-1.3,6.1-3.9,9.1c-2.6,3-7.2,6.1-13.8,9.4c-2.3-0.9-5-1.8-8.1-2.7
		c-5.5,2.5-10,3.8-13.6,3.8c-2.5,0-4.5-0.6-5.8-1.7c-1.4-1.1-2-2.4-2-3.8c0-1.5,0.8-3,2.5-4.2c1.6-1.3,4.1-1.9,7.3-1.9
		c1.3,0,2.8,0.2,4.7,0.5l2.4-4.2l-4.3,0.3c-1,0-2.4-0.1-4.1-0.4c-1.7-0.3-3.1-0.8-4.2-1.5s-1.9-1.5-2.5-2.5c-0.5-1-0.8-2-0.8-3.1
		c0-1.7,0.6-3.3,1.8-4.6c0.8-0.9,2.1-1.6,3.9-2.3l0-0.4c0-1.8,0.8-3.9,2.4-6.3C504.6,211.8,507.6,208.9,511.9,205.5z M513.3,245.9
		c-4.9-1.6-8.9-2.4-12-2.4c-1.6,0-2.9,0.4-3.8,1.1c-0.6,0.5-1,1-1,1.7c0,0.7,0.3,1.3,1,1.7c1,0.7,2.5,1.1,4.4,1.1
		C505,249,508.8,248,513.3,245.9z M516.3,225.4c-2.5,0.4-5,0.5-7.4,0.5c-2.7,0-4.5-0.3-5.7-0.9c-1.1-0.6-1.9-1.6-2.5-2.9
		c-1.4,0.9-2.1,2-2.1,3.3c0,1.2,0.5,2.2,1.6,3c1.4,1,3.9,1.5,7.4,1.5c1.6,0,3.7-0.1,6.3-0.4L516.3,225.4z M522.4,214.6
		c-3.1-1.5-5.5-2.5-7.2-3.1c-1.7-0.5-3.2-0.8-4.5-0.8c-1.8,0-3.3,0.5-4.5,1.6c-1.2,1-1.7,2.2-1.7,3.6c0,1.4,0.5,2.5,1.5,3.4
		c1,0.9,2.5,1.3,4.5,1.3c1.3,0,4.3-0.2,8.9-0.6L522.4,214.6z M509.8,239.4c1.8,0.4,3.3,0.8,4.5,1.1c1.2,0.3,3.2,1,6.2,2.1
		c4.7-2.2,7.1-4.2,7.1-6.3c0-0.6-0.3-1.2-0.8-1.7c-0.6-0.5-1.3-0.8-2.1-0.8c-1,0-2.3,0.1-3.9,0.3c-4.3,0.5-7.1,0.7-8.4,0.7
		L509.8,239.4z M515.5,229.4c4.7-0.5,7.9-0.7,9.7-0.7c2.5,0,4.4,0.6,5.7,1.7c1.3,1.1,2,2.5,2,4c0,1.4-0.6,2.7-1.9,4
		c-1.3,1.3-4,2.9-8.3,4.8l6,1.6c2.6-1.6,4.5-3.3,5.9-5.1s2.1-3.9,2.1-6.1c0-1.4-0.4-2.9-1.3-4.3c-0.9-1.4-2.2-2.5-4-3.3
		c-1.8-0.8-3.9-1.2-6.2-1.2c-1.9,0-4.3,0.2-7.3,0.5L515.5,229.4z"/>
</g>
</svg>
