<?xml version="1.0" encoding="utf-8"?>
<!-- Generator: Adobe Illustrator 28.0.0, SVG Export Plug-In . SVG Version: 6.00 Build 0)  -->
<svg version="1.1" id="Слой_1" xmlns="http://www.w3.org/2000/svg" xmlns:xlink="http://www.w3.org/1999/xlink" x="0px" y="0px"
	 viewBox="0 0 874.7 500" style="enable-background:new 0 0 874.7 500;" xml:space="preserve">
<style type="text/css">
	.st0{fill:url(#SVGID_1_);}
	.st1{clip-path:url(#SVGID_00000085247110099342329280000005370661635433295004_);}
	.st2{fill:url(#SVGID_00000082361870480514327000000015496938177460196504_);}
	.st3{clip-path:url(#SVGID_00000085218223275391275570000008297786596860352181_);}
	.st4{fill:url(#SVGID_00000067197534160261431500000002430043208182955683_);}
	.st5{clip-path:url(#SVGID_00000139293039671753012520000013000222249997328035_);}
	.st6{fill:#B5FFA8;}
	.st7{fill:url(#SVGID_00000083785060134718555290000002099426156205303996_);}
	.st8{fill:url(#SVGID_00000043424203922794037950000010462132658316707986_);}
	.st9{fill:url(#SVGID_00000058590331377962655490000001719311764174189195_);}
	.st10{fill:#FDFFFD;}
	.st11{fill:#FFFFFF;stroke:#000000;stroke-miterlimit:10;}
</style>
<g id="BACKGROUND">
	
		<linearGradient id="SVGID_1_" gradientUnits="userSpaceOnUse" x1="56.0083" y1="94.0096" x2="896.4275" y2="442.1965" gradientTransform="matrix(1 0 0 -1 0 502)">
		<stop  offset="0" style="stop-color:#009E9D"/>
		<stop  offset="0.3403" style="stop-color:#3FC0A1"/>
		<stop  offset="0.9948" style="stop-color:#B5FFA8"/>
	</linearGradient>
	<rect class="st0" width="874.7" height="500"/>
</g>
<g id="OBJECTS">
	<g>
		<g>
			<defs>
				<polyline id="SVGID_00000125575015099972287710000001777809495809010345_" points="162.6,0 874.6,0 874.6,500 0,500 0,0 
					162.6,0 				"/>
			</defs>
			<clipPath id="SVGID_00000007422236973067310470000005595538294582689954_">
				<use xlink:href="#SVGID_00000125575015099972287710000001777809495809010345_"  style="overflow:visible;"/>
			</clipPath>
			<g style="clip-path:url(#SVGID_00000007422236973067310470000005595538294582689954_);">
				<g>
					<g>
						
							<linearGradient id="SVGID_00000099621392274762008290000000956476035987825840_" gradientUnits="userSpaceOnUse" x1="264.8086" y1="-286.3343" x2="187.2058" y2="260.5259" gradientTransform="matrix(1 0 0 -1 0 502)">
							<stop  offset="0" style="stop-color:#009E9D"/>
							<stop  offset="0.3403" style="stop-color:#3FC0A1"/>
							<stop  offset="0.9948" style="stop-color:#B5FFA8"/>
						</linearGradient>
						
							<ellipse style="fill:url(#SVGID_00000099621392274762008290000000956476035987825840_);" cx="220.6" cy="476.8" rx="220.7" ry="249.2"/>
					</g>
				</g>
			</g>
		</g>
		<g>
			<defs>
				<polyline id="SVGID_00000042007920127790444360000006614899672372214401_" points="162.6,0 874.6,0 874.6,500 0,500 0,0 
					162.6,0 				"/>
			</defs>
			<clipPath id="SVGID_00000096781916368881569760000011053393648291041920_">
				<use xlink:href="#SVGID_00000042007920127790444360000006614899672372214401_"  style="overflow:visible;"/>
			</clipPath>
			<g style="clip-path:url(#SVGID_00000096781916368881569760000011053393648291041920_);">
				<g>
					
						<linearGradient id="SVGID_00000032636294734408770120000016344638064518774146_" gradientUnits="userSpaceOnUse" x1="369.5892" y1="149.5381" x2="736.3862" y2="760.8655" gradientTransform="matrix(1 0 0 -1 0 502)">
						<stop  offset="0" style="stop-color:#009E9D"/>
						<stop  offset="0.3403" style="stop-color:#3FC0A1"/>
						<stop  offset="0.9948" style="stop-color:#B5FFA8"/>
					</linearGradient>
					<path style="fill:url(#SVGID_00000032636294734408770120000016344638064518774146_);" d="M618.7-264.3
						C511.2-264.3,424-174.1,424-62.7s87.2,201.6,194.7,201.6S813.4,48.6,813.4-62.7S726.2-264.3,618.7-264.3z M618.7,68.3
						c-69.9,0-126.5-58.7-126.5-131s56.7-131,126.5-131c69.9,0,126.5,58.7,126.5,131S688.6,68.3,618.7,68.3z"/>
				</g>
			</g>
		</g>
		<g>
			<defs>
				<polyline id="SVGID_00000171680578437098608940000013658595777183993532_" points="162.6,0 874.6,0 874.6,500 0,500 0,0 
					162.6,0 				"/>
			</defs>
			<clipPath id="SVGID_00000030480765021519539130000006489581367617539769_">
				<use xlink:href="#SVGID_00000171680578437098608940000013658595777183993532_"  style="overflow:visible;"/>
			</clipPath>
			<g style="clip-path:url(#SVGID_00000030480765021519539130000006489581367617539769_);">
				<path class="st6" d="M499,984.6v-507c0-49.6,44.5-90,99.3-90s99.3,40.4,99.3,90v507c0,49.6-44.5,90-99.3,90
					S499,1034.3,499,984.6z M696.1,477.7c0-48.9-43.9-88.7-97.8-88.7c-53.9,0-97.8,39.8-97.8,88.7v507c0,48.9,43.9,88.7,97.8,88.7
					c53.9,0,97.8-39.8,97.8-88.7V477.7z"/>
				<path class="st6" d="M509.2,984.9V477.4c0-44.5,40-80.7,89.1-80.7s89.1,36.2,89.1,80.7v507.5c0,44.5-40,80.7-89.1,80.7
					S509.2,1029.4,509.2,984.9z M685.9,477.4c0-43.8-39.3-79.4-87.6-79.4s-87.6,35.6-87.6,79.4v507.5c0,43.8,39.3,79.4,87.6,79.4
					s87.6-35.6,87.6-79.4V477.4z"/>
				<path class="st6" d="M519.4,985.1v-508c0-39.4,35.4-71.5,78.9-71.5s78.9,32.1,78.9,71.5v508c0,39.4-35.4,71.5-78.9,71.5
					S519.4,1024.5,519.4,985.1z M675.7,477.2c0-38.7-34.7-70.1-77.4-70.1s-77.4,31.5-77.4,70.1v508c0,38.7,34.7,70.1,77.4,70.1
					s77.4-31.5,77.4-70.1V477.2z"/>
				<path class="st6" d="M529.6,985.4V476.9c0-34.3,30.8-62.2,68.6-62.2s68.6,27.9,68.6,62.2v508.5c0,34.3-30.8,62.2-68.6,62.2
					S529.6,1019.7,529.6,985.4z M665.4,476.9c0-33.6-30.1-60.9-67.2-60.9c-37,0-67.2,27.3-67.2,60.9v508.5
					c0,33.6,30.1,60.9,67.2,60.9c37,0,67.2-27.3,67.2-60.9V476.9z"/>
				<path class="st6" d="M539.9,985.6v-509c0-29.2,26.2-52.9,58.4-52.9s58.4,23.7,58.4,52.9v509c0,29.2-26.2,52.9-58.4,52.9
					C566.1,1038.6,539.9,1014.8,539.9,985.6z M655.2,476.7c0-28.5-25.5-51.6-56.9-51.6s-56.9,23.1-56.9,51.6v509
					c0,28.5,25.5,51.6,56.9,51.6s56.9-23.1,56.9-51.6V476.7z"/>
				<path class="st6" d="M550.1,985.9V476.4c0-24.1,21.6-43.7,48.2-43.7c26.6,0,48.2,19.6,48.2,43.7v509.5
					c0,24.1-21.6,43.7-48.2,43.7C571.7,1029.5,550.1,1010,550.1,985.9z M645,476.4c0-23.3-21-42.3-46.7-42.3
					c-25.8,0-46.7,19-46.7,42.3v509.5c0,23.3,21,42.3,46.7,42.3c25.8,0,46.7-19,46.7-42.3V476.4z"/>
				<path class="st6" d="M560.3,986.1v-510c0-19,17-34.4,38-34.4c20.9,0,38,15.4,38,34.4v510c0,19-17,34.4-38,34.4
					S560.3,1005.1,560.3,986.1z M634.8,476.2c0-18.2-16.4-33.1-36.5-33.1s-36.5,14.8-36.5,33.1v510c0,18.2,16.4,33.1,36.5,33.1
					s36.5-14.8,36.5-33.1V476.2z"/>
				<path class="st6" d="M570.5,986.4V475.9c0-13.9,12.4-25.1,27.7-25.1s27.7,11.3,27.7,25.1v510.5c0,13.9-12.4,25.1-27.7,25.1
					C583,1011.5,570.5,1000.2,570.5,986.4z M624.6,475.9c0-13.1-11.8-23.8-26.3-23.8S572,462.8,572,475.9v510.5
					c0,13.1,11.8,23.8,26.3,23.8s26.3-10.7,26.3-23.8V475.9z"/>
				<path class="st6" d="M580.8,986.6V475.7c0-8.8,7.9-15.9,17.5-15.9c9.7,0,17.5,7.1,17.5,15.9v510.9c0,8.8-7.9,15.9-17.5,15.9
					C588.6,1002.5,580.8,995.4,580.8,986.6z M614.3,475.7c0-8-7.2-14.5-16.1-14.5c-8.9,0-16.1,6.5-16.1,14.5v510.9
					c0,8,7.2,14.5,16.1,14.5c8.9,0,16.1-6.5,16.1-14.5V475.7z"/>
				<path class="st6" d="M591,986.9V475.4c0-3.6,3.3-6.6,7.3-6.6s7.3,3,7.3,6.6v511.4c0,3.6-3.3,6.6-7.3,6.6
					C594.3,993.5,591,990.5,591,986.9z M604.1,475.4c0-2.9-2.6-5.3-5.8-5.3s-5.8,2.4-5.8,5.3v511.4c0,2.9,2.6,5.3,5.8,5.3
					s5.8-2.4,5.8-5.3V475.4z"/>
			</g>
		</g>
	</g>
	<g>
		
			<linearGradient id="SVGID_00000076606139167370772410000011978935636585915306_" gradientUnits="userSpaceOnUse" x1="891.9572" y1="364.8786" x2="634.1299" y2="172.565" gradientTransform="matrix(1 0 0 -1 0 502)">
			<stop  offset="0" style="stop-color:#009E9D"/>
			<stop  offset="0.3403" style="stop-color:#3FC0A1"/>
			<stop  offset="0.9948" style="stop-color:#B5FFA8"/>
		</linearGradient>
		<path style="fill:url(#SVGID_00000076606139167370772410000011978935636585915306_);" d="M803.1,233.4c-16.5,0-30-13.5-30-30
			s13.5-30,30-30s30,13.5,30,30S819.6,233.4,803.1,233.4z M803.1,176.4c-14.9,0-27,12.1-27,27s12.1,27,27,27s27-12.1,27-27
			S818,176.4,803.1,176.4z"/>
		
			<linearGradient id="SVGID_00000146498020275636362380000003025691948248384699_" gradientUnits="userSpaceOnUse" x1="892.0032" y1="364.8167" x2="634.175" y2="172.5023" gradientTransform="matrix(1 0 0 -1 0 502)">
			<stop  offset="0" style="stop-color:#009E9D"/>
			<stop  offset="0.3403" style="stop-color:#3FC0A1"/>
			<stop  offset="0.9948" style="stop-color:#B5FFA8"/>
		</linearGradient>
		<path style="fill:url(#SVGID_00000146498020275636362380000003025691948248384699_);" d="M803.1,218.7c-8.4,0-15.2-6.8-15.2-15.2
			s6.8-15.2,15.2-15.2s15.2,6.8,15.2,15.2C818.4,211.8,811.5,218.7,803.1,218.7z M803.1,191.2c-6.8,0-12.2,5.5-12.2,12.2
			c0,6.8,5.5,12.2,12.2,12.2s12.2-5.5,12.2-12.2C815.4,196.6,809.9,191.2,803.1,191.2z"/>
	</g>
	<polygon class="st6" points="724.9,227.7 703.3,227.7 718.5,212.5 714.8,208.7 699.5,223.9 699.5,202.4 694.1,202.4 694.1,223.9 
		678.9,208.7 675.1,212.5 690.4,227.7 668.8,227.7 668.8,233.1 690.4,233.1 675.1,248.3 678.9,252.1 694.1,236.9 694.1,258.4 
		699.5,258.4 699.5,236.9 714.8,252.1 718.5,248.3 703.3,233.1 724.9,233.1 	"/>
	<g>
		<g>
			
				<ellipse transform="matrix(0.9229 -0.3851 0.3851 0.9229 -13.8925 32.1751)" class="st6" cx="73.4" cy="50.8" rx="10.2" ry="10.2"/>
			
				<ellipse transform="matrix(0.1607 -0.987 0.987 0.1607 -22.2246 143.6187)" class="st6" cx="73.3" cy="84.9" rx="10.2" ry="10.2"/>
			<circle class="st6" cx="73.4" cy="119" r="10.2"/>
			<circle class="st6" cx="73.4" cy="153.1" r="10.2"/>
			
				<ellipse transform="matrix(0.9229 -0.3851 0.3851 0.9229 -66.4145 42.7075)" class="st6" cx="73.4" cy="187.2" rx="10.2" ry="10.2"/>
		</g>
	</g>
	<g>
		<g>
			<g>
				
					<linearGradient id="SVGID_00000062909436748583516820000010056270015530296235_" gradientUnits="userSpaceOnUse" x1="614.4299" y1="431.6114" x2="86.5213" y2="350.912" gradientTransform="matrix(1 0 0 -1 0 502)">
					<stop  offset="0" style="stop-color:#009E9D"/>
					<stop  offset="0.3403" style="stop-color:#3FC0A1"/>
					<stop  offset="0.9948" style="stop-color:#B5FFA8"/>
				</linearGradient>
				<path style="fill:url(#SVGID_00000062909436748583516820000010056270015530296235_);" d="M444.4,159.6L444.4,159.6
					c-7,5-16.4,4.8-23.2-0.3L375.8,125c-1.2-0.9-2.8-0.9-4,0l-31.3,24.1c-15.5,11.9-37,11.9-52.5,0L256.7,125c-1.2-0.9-2.8-0.9-4,0
					l-31.4,24.1c-15.4,11.9-37,11.9-52.5,0l-45.4-35c-8.7-6.7-10.3-19.2-3.7-27.9c3.9-5.1,9.8-7.7,15.7-7.7c4.2,0,8.5,1.3,12.1,4.1
					l45.4,35c1.2,0.9,2.9,0.9,4,0l31.3-24.1c15.5-11.9,37-11.9,52.5,0l31.3,24.1c1.2,0.9,2.9,0.9,4,0l31.3-24.1
					c15.4-11.9,37-11.9,52.5,0l44.9,34.5C455.4,136.1,455.1,152,444.4,159.6z"/>
			</g>
		</g>
	</g>
</g>
<g id="TEXTS">
	<g>
		<g>
			<g>
				<path class="st10" d="M93.8,294.8c-1.6,2.9-4,5.2-7.3,6.9c-3.3,1.8-7.4,2.6-12.2,2.6h-9v21.4H50.8V266h23.5
					c4.8,0,8.8,0.8,12.1,2.5c3.3,1.6,5.8,3.9,7.4,6.8s2.5,6.2,2.5,9.9C96.2,288.8,95.4,292,93.8,294.8z M79.4,290.9
					c1.4-1.3,2-3.1,2-5.5s-0.7-4.2-2-5.5c-1.4-1.3-3.4-2-6.2-2h-7.9v15h7.9C76,292.8,78,292.2,79.4,290.9z"/>
				<path class="st10" d="M103.7,289.2c1.8-3.7,4.3-6.5,7.5-8.5s6.7-3,10.6-3c3.3,0,6.3,0.7,8.8,2c2.5,1.4,4.5,3.1,5.8,5.4v-6.7
					h14.5v47.4h-14.5v-6.7c-1.4,2.2-3.4,4-5.9,5.4s-5.5,2-8.8,2c-3.9,0-7.4-1-10.5-3c-3.2-2-5.7-4.9-7.5-8.6s-2.8-8-2.8-12.9
					S101.8,292.9,103.7,289.2z M133.4,293.5c-2-2.1-4.5-3.1-7.4-3.1s-5.3,1-7.4,3.1c-2,2.1-3,4.9-3,8.5s1,6.5,3,8.6s4.5,3.2,7.4,3.2
					s5.3-1,7.4-3.1c2-2.1,3-5,3-8.6S135.4,295.6,133.4,293.5z"/>
				<path class="st10" d="M181.9,279.7c2.5-1.4,5.4-2,8.8-2c3.9,0,7.5,1,10.6,3c3.2,2,5.7,4.8,7.5,8.5s2.8,8,2.8,12.8
					s-0.9,9.2-2.8,12.9c-1.8,3.7-4.3,6.6-7.5,8.6s-6.7,3-10.6,3c-3.3,0-6.2-0.7-8.7-2c-2.5-1.4-4.5-3.1-5.9-5.3v29.2h-14.5v-70h14.5
					v6.7C177.4,282.9,179.4,281.1,181.9,279.7z M193.8,293.5c-2-2.1-4.5-3.1-7.4-3.1s-5.3,1.1-7.4,3.1c-2,2.1-3,5-3,8.6s1,6.5,3,8.6
					s4.5,3.1,7.4,3.1s5.4-1.1,7.4-3.2s3.1-5,3.1-8.6S195.8,295.5,193.8,293.5z"/>
				<path class="st10" d="M219.1,289.2c1.8-3.7,4.3-6.5,7.5-8.5s6.7-3,10.6-3c3.3,0,6.3,0.7,8.8,2c2.5,1.4,4.5,3.1,5.8,5.4v-6.7
					h14.5v47.4h-14.5v-6.7c-1.4,2.2-3.4,4-5.9,5.4s-5.5,2-8.8,2c-3.9,0-7.4-1-10.5-3c-3.2-2-5.7-4.9-7.5-8.6s-2.8-8-2.8-12.9
					S217.2,292.9,219.1,289.2z M248.8,293.5c-2-2.1-4.5-3.1-7.4-3.1s-5.3,1-7.4,3.1c-2,2.1-3,4.9-3,8.5s1,6.5,3,8.6s4.5,3.2,7.4,3.2
					s5.3-1,7.4-3.1c2-2.1,3-5,3-8.6S250.8,295.6,248.8,293.5z"/>
				<path class="st10" d="M285.2,324.4c-3.2-1.4-5.8-3.4-7.6-5.8s-2.9-5.2-3.1-8.3h14.4c0.2,1.6,0.9,3,2.3,4c1.4,1,3,1.5,5,1.5
					c1.8,0,3.2-0.4,4.2-1.1s1.5-1.6,1.5-2.8c0-1.4-0.7-2.4-2.1-3c-1.4-0.7-3.7-1.4-6.9-2.2c-3.4-0.8-6.2-1.6-8.5-2.5
					s-4.2-2.3-5.9-4.2c-1.6-1.9-2.5-4.5-2.5-7.7c0-2.7,0.8-5.2,2.3-7.4c1.5-2.2,3.7-4,6.6-5.3c2.9-1.3,6.4-2,10.4-2
					c6,0,10.6,1.5,14.1,4.4c3.4,2.9,5.4,6.9,5.9,11.7h-13.4c-0.2-1.6-0.9-2.9-2.2-3.9c-1.2-1-2.8-1.4-4.8-1.4c-1.7,0-3,0.3-3.9,1
					s-1.4,1.5-1.4,2.7c0,1.4,0.7,2.4,2.2,3.1s3.7,1.4,6.8,2c3.5,0.9,6.4,1.8,8.6,2.7c2.2,0.9,4.2,2.3,5.8,4.2c1.7,2,2.5,4.6,2.6,7.9
					c0,2.8-0.8,5.3-2.3,7.4c-1.6,2.2-3.8,3.9-6.7,5.1s-6.3,1.9-10.2,1.9C292.1,326.5,288.4,325.8,285.2,324.4z"/>
				<path class="st10" d="M353.3,325.8l-14.5-19.9v19.9h-14.5v-62.9h14.5v34.8l14.4-19.3h17.9l-19.7,23.8l19.9,23.6H353.3z"/>
				<path class="st10" d="M376.8,289.2c1.8-3.7,4.3-6.5,7.5-8.5s6.7-3,10.6-3c3.3,0,6.3,0.7,8.8,2c2.5,1.4,4.5,3.1,5.8,5.4v-6.7H424
					v47.4h-14.5v-6.7c-1.4,2.2-3.4,4-5.9,5.4s-5.5,2-8.8,2c-3.9,0-7.4-1-10.5-3c-3.2-2-5.7-4.9-7.5-8.6s-2.8-8-2.8-12.9
					S374.9,292.9,376.8,289.2z M406.5,293.5c-2-2.1-4.5-3.1-7.4-3.1s-5.3,1-7.4,3.1c-2,2.1-3,4.9-3,8.5s1,6.5,3,8.6s4.5,3.2,7.4,3.2
					s5.3-1,7.4-3.1c2-2.1,3-5,3-8.6S408.5,295.6,406.5,293.5z"/>
				<path class="st10" d="M473,279.7c2.5-1.4,5.4-2,8.8-2c3.9,0,7.5,1,10.6,3c3.2,2,5.7,4.8,7.5,8.5s2.8,8,2.8,12.8
					s-0.9,9.2-2.8,12.9c-1.8,3.7-4.3,6.6-7.5,8.6s-6.7,3-10.6,3c-3.3,0-6.2-0.7-8.7-2c-2.5-1.4-4.5-3.1-5.9-5.3v29.2h-14.5v-70h14.5
					v6.7C468.6,282.9,470.5,281.1,473,279.7z M484.9,293.5c-2-2.1-4.5-3.1-7.4-3.1s-5.3,1.1-7.4,3.1c-2,2.1-3,5-3,8.6s1,6.5,3,8.6
					s4.5,3.1,7.4,3.1s5.4-1.1,7.4-3.2s3.1-5,3.1-8.6S486.9,295.5,484.9,293.5z"/>
				<path class="st10" d="M519.4,323.5c-3.7-2-6.6-4.8-8.8-8.5c-2.1-3.7-3.2-8-3.2-12.9s1.1-9.2,3.2-12.9c2.2-3.7,5.1-6.6,8.8-8.5
					c3.7-2,7.9-3,12.6-3c4.6,0,8.8,1,12.6,3c3.7,2,6.7,4.8,8.8,8.5c2.2,3.7,3.2,8,3.2,12.9s-1.1,9.2-3.3,12.9
					c-2.2,3.7-5.2,6.6-8.9,8.5c-3.8,2-8,3-12.6,3C527.3,326.5,523.1,325.5,519.4,323.5z M539,310.9c2-2,2.9-5,2.9-8.8
					s-0.9-6.7-2.8-8.8c-1.9-2-4.2-3.1-7-3.1s-5.2,1-7.1,3c-1.9,2-2.8,4.9-2.8,8.8c0,3.8,0.9,6.7,2.8,8.8c1.8,2,4.2,3.1,6.9,3.1
					C534.7,313.9,537.1,312.9,539,310.9z"/>
				<path class="st10" d="M585.4,280.1c2.6-1.5,5.4-2.3,8.5-2.3v15.4h-4c-3.6,0-6.3,0.8-8.2,2.3c-1.8,1.6-2.7,4.3-2.7,8.2v22h-14.5
					v-47.4H579v7.9C580.7,283.7,582.8,281.6,585.4,280.1z"/>
				<path class="st10" d="M627.3,313.5v12.3h-7.4c-5.3,0-9.4-1.3-12.3-3.9c-2.9-2.6-4.4-6.8-4.4-12.6v-18.9h-5.8v-12.1h5.8v-11.6
					h14.5v11.6h9.5v12.1h-9.5v19c0,1.4,0.3,2.4,1,3.1c0.7,0.6,1.8,0.9,3.4,0.9h5.2V313.5z"/>
				<path class="st10" d="M659.2,290.5h-7.9v35.4h-14.5v-35.4h-5.3v-12.1h5.3V277c0-5.8,1.7-10.3,5-13.3s8.2-4.5,14.7-4.5
					c1.1,0,1.9,0,2.4,0.1v12.3c-2.8-0.2-4.7,0.2-5.9,1.2c-1.1,1-1.7,2.7-1.7,5.2v0.4h7.8v12.1H659.2z"/>
				<path class="st10" d="M675,323.5c-3.7-2-6.6-4.8-8.8-8.5c-2.1-3.7-3.2-8-3.2-12.9s1.1-9.2,3.2-12.9c2.2-3.7,5.1-6.6,8.8-8.5
					c3.7-2,7.9-3,12.6-3c4.6,0,8.8,1,12.6,3c3.7,2,6.7,4.8,8.8,8.5c2.2,3.7,3.2,8,3.2,12.9s-1.1,9.2-3.3,12.9
					c-2.2,3.7-5.2,6.6-8.9,8.5c-3.8,2-8,3-12.6,3C682.9,326.5,678.7,325.5,675,323.5z M694.6,310.9c2-2,2.9-5,2.9-8.8
					s-0.9-6.7-2.8-8.8c-1.9-2-4.2-3.1-7-3.1s-5.2,1-7.1,3c-1.9,2-2.8,4.9-2.8,8.8c0,3.8,0.9,6.7,2.8,8.8c1.8,2,4.2,3.1,6.9,3.1
					C690.3,313.9,692.7,312.9,694.6,310.9z"/>
				<path class="st10" d="M734.6,262.9v62.9h-14.5v-62.9H734.6z"/>
				<path class="st10" d="M746.2,271.2c-1.6-1.5-2.4-3.4-2.4-5.6c0-2.3,0.8-4.2,2.4-5.7s3.7-2.3,6.2-2.3s4.5,0.8,6.2,2.3
					c1.6,1.5,2.4,3.4,2.4,5.7c0,2.2-0.8,4.1-2.4,5.6s-3.7,2.3-6.2,2.3S747.9,272.7,746.2,271.2z M759.7,278.4v47.4h-14.5v-47.4
					H759.7z"/>
				<path class="st10" d="M779.3,323.5c-3.7-2-6.6-4.8-8.8-8.5c-2.1-3.7-3.2-8-3.2-12.9s1.1-9.2,3.2-12.9c2.2-3.7,5.1-6.6,8.8-8.5
					c3.7-2,7.9-3,12.6-3c4.6,0,8.8,1,12.6,3c3.7,2,6.7,4.8,8.8,8.5c2.2,3.7,3.2,8,3.2,12.9s-1.1,9.2-3.3,12.9
					c-2.2,3.7-5.2,6.6-8.9,8.5c-3.8,2-8,3-12.6,3C787.2,326.5,783,325.5,779.3,323.5z M798.9,310.9c2-2,2.9-5,2.9-8.8
					s-0.9-6.7-2.8-8.8c-1.9-2-4.2-3.1-7-3.1s-5.2,1-7.1,3s-2.8,4.9-2.8,8.8c0,3.8,0.9,6.7,2.8,8.8c1.8,2,4.2,3.1,6.9,3.1
					C794.6,313.9,797,312.9,798.9,310.9z"/>
			</g>
		</g>
	</g>
</g>
<path class="st11" d="M0,0"/>
</svg>
