<?xml version="1.0" encoding="utf-8"?>
<!-- Generator: Adobe Illustrator 26.0.2, SVG Export Plug-In . SVG Version: 6.00 Build 0)  -->
<svg version="1.1" xmlns="http://www.w3.org/2000/svg" xmlns:xlink="http://www.w3.org/1999/xlink" x="0px" y="0px"
	 viewBox="0 0 48 48" style="enable-background:new 0 0 48 48;" xml:space="preserve">
<style type="text/css">
	.st0{fill:#202124;}
	.st1{fill:#DBEFE8;}
</style>
<g id="Задний_фон">
	<path class="st0" d="M43,48H5c-2.76,0-5-2.24-5-5V5c0-2.76,2.24-5,5-5h38c2.76,0,5,2.24,5,5v38C48,45.76,45.76,48,43,48z"/>
</g>
<g id="PD">
	<g>
		<g>
			<path class="st1" d="M7.23,18.73h3.73v22.72H7.23V18.73z M9.03,29.06h7.27c0.6,0,1.13-0.14,1.59-0.41s0.81-0.67,1.06-1.18
				c0.25-0.51,0.38-1.1,0.38-1.77c0-0.68-0.12-1.27-0.38-1.78c-0.25-0.51-0.6-0.91-1.06-1.19c-0.46-0.28-0.99-0.42-1.59-0.42H9.03
				v-3.58h7.16c1.39,0,2.6,0.29,3.66,0.87c1.05,0.58,1.87,1.39,2.45,2.45c0.58,1.05,0.88,2.27,0.88,3.66c0,1.39-0.29,2.6-0.88,3.65
				c-0.58,1.05-1.4,1.86-2.45,2.43c-1.05,0.57-2.27,0.86-3.66,0.86H9.03V29.06z"/>
			<path class="st1" d="M27.16,18.73h3.73v22.72h-3.73V18.73z M29.31,37.87h5.3c1.54,0,2.74-0.39,3.59-1.16
				c0.85-0.77,1.27-1.86,1.27-3.28v-6.69c0-1.42-0.42-2.51-1.27-3.28c-0.85-0.77-2.04-1.16-3.59-1.16h-5.3v-3.58h5.2
				c1.85,0,3.44,0.32,4.76,0.95c1.32,0.64,2.32,1.56,3.01,2.78s1.03,2.69,1.03,4.41v6.44c0,1.68-0.34,3.12-1.02,4.34
				c-0.68,1.22-1.67,2.16-2.99,2.81c-1.32,0.66-2.92,0.98-4.8,0.98h-5.19V37.87z"/>
		</g>
	</g>
</g>
</svg>
