<?xml version="1.0" encoding="utf-8"?>
<!-- Generator: Adobe Illustrator 26.0.2, SVG Export Plug-In . SVG Version: 6.00 Build 0)  -->
<svg version="1.1" xmlns="http://www.w3.org/2000/svg" xmlns:xlink="http://www.w3.org/1999/xlink" x="0px" y="0px"
	 viewBox="0 0 48 48" style="enable-background:new 0 0 48 48;" xml:space="preserve">
<style type="text/css">
	.st0{fill:#01B075;}
	.st1{fill:#DBEFE8;}
</style>
<g id="Задний_фон">
	<path class="st0" d="M45,48H3c-1.66,0-3-1.34-3-3V3c0-1.66,1.34-3,3-3h42c1.66,0,3,1.34,3,3v42C48,46.66,46.66,48,45,48z"/>
</g>
<g id="PD">
	<g>
		<g>
			<path class="st1" d="M8.73,23.23h3.73v22.72H8.73V23.23z M10.53,33.56h7.27c0.6,0,1.13-0.14,1.59-0.41s0.81-0.67,1.06-1.18
				c0.25-0.51,0.38-1.1,0.38-1.77c0-0.68-0.12-1.27-0.38-1.78s-0.6-0.91-1.06-1.19c-0.46-0.28-0.99-0.42-1.59-0.42h-7.27v-3.58h7.16
				c1.39,0,2.6,0.29,3.66,0.87c1.05,0.58,1.87,1.39,2.45,2.45c0.58,1.05,0.88,2.27,0.88,3.66s-0.29,2.6-0.88,3.65
				c-0.58,1.05-1.4,1.86-2.45,2.43c-1.05,0.57-2.27,0.86-3.66,0.86h-7.16V33.56z"/>
			<path class="st1" d="M28.66,23.23h3.73v22.72h-3.73V23.23z M30.81,42.37h5.3c1.54,0,2.74-0.39,3.59-1.16
				c0.85-0.77,1.27-1.86,1.27-3.28v-6.69c0-1.42-0.42-2.51-1.27-3.28c-0.85-0.77-2.04-1.16-3.59-1.16h-5.3v-3.58h5.2
				c1.85,0,3.44,0.32,4.76,0.95c1.32,0.64,2.32,1.56,3.01,2.78s1.03,2.69,1.03,4.41v6.44c0,1.68-0.34,3.12-1.02,4.34
				c-0.68,1.22-1.67,2.16-2.99,2.81c-1.32,0.66-2.92,0.98-4.8,0.98h-5.19V42.37z"/>
		</g>
	</g>
</g>
</svg>
